<svg width="101" height="100" viewBox="0 0 101 100" fill="none" xmlns="http://www.w3.org/2000/svg">
<g clip-path="url(#clip0_143_5623)">
<path d="M52.7189 64.9227C53.2903 65.9886 54.952 65.6862 55.1891 64.6145C55.8726 65.6008 57.4552 65.1404 57.6061 64.1029C58.2681 64.8173 59.5812 64.5313 59.8787 63.6062C59.8744 63.6197 59.883 63.5927 59.8787 63.6062C64.7494 61.623 68.3142 58.0352 69.7085 53.7521C70.0044 53.6296 70.2632 53.4332 70.4595 53.1821C71.9659 53.5329 73.6491 54.2346 74.2694 52.568C75.599 52.9188 78.3869 53.8375 79.2306 51.6038C81.1798 51.8671 84.0143 52.0421 84.3694 50.0248C86.0526 50.0248 88.9756 49.7615 88.9756 47.8316C90.6595 47.8316 93.5825 46.691 93.2282 45.3752C94.7346 45.2002 96.7729 43.6212 96.7729 42.5687C98.2785 42.1304 99.9625 40.9897 99.6074 39.4989C100.493 38.9723 101.999 38.3582 101.999 37.4815C101.999 36.6049 101.291 35.9025 100.493 35.9025C99.6951 35.9025 96.683 36.0833 95.62 36.0833C94.5578 36.0833 81.7109 35.9075 78.6988 36.0833C75.6867 36.2583 71.8768 36.3409 70.0161 36.1658C68.6455 36.0349 63.9761 35.7702 61.1724 36.5124C55.2344 33.5991 47.7663 33.5984 41.8269 36.5124C39.024 35.7709 34.3538 36.0356 32.9825 36.1644C31.1218 36.3402 27.3126 36.2569 24.2998 36.0818C21.2877 35.9061 8.44078 36.0818 7.37781 36.0818C6.31484 36.0818 3.30274 35.9011 2.50497 35.9011C1.70721 35.9011 1 36.6034 1 37.4801C1 38.3575 2.50641 38.9716 3.39258 39.4975C3.03754 40.989 4.72147 42.129 6.22716 42.5673C6.22716 43.6197 8.2647 45.1988 9.77111 45.3738C9.41679 46.6903 12.3405 47.8302 14.0237 47.8302C14.0237 49.7594 16.9474 50.0234 18.6306 50.0234C18.9849 52.0407 21.8202 51.8657 23.7694 51.6024C24.6131 53.8368 27.4017 52.9181 28.7306 52.5666C29.3509 54.2338 31.0341 53.5315 32.5405 53.1807C32.746 53.4454 33.0048 53.629 33.2915 53.7507C34.6858 58.0345 38.2513 61.6223 43.1213 63.6055C43.117 63.592 43.1249 63.619 43.1213 63.6055C43.4189 64.5306 44.7319 64.8166 45.3939 64.1022C45.5448 65.1397 47.1274 65.5994 47.8109 64.6138C48.0473 65.6855 49.7097 65.9879 50.2804 64.9219C50.4162 65.9189 52.5831 65.9189 52.7189 64.9227Z" fill="#4C4C4C" fill-opacity="0.4"/>
<path d="M36.1728 53.5332C36.6939 54.7123 38.3404 54.4668 39.3265 54.0989C40.6417 56.08 42.8295 57.6925 45.5232 58.6666L43.3836 62.2573C39.2244 60.4634 36.1455 57.4605 34.7886 53.9246C35.2689 53.872 35.7369 53.7397 36.1728 53.5332Z" fill="#4C4C4C" fill-opacity="0.4"/>
<path d="M43.0739 63.1891C38.4821 61.2692 35.107 57.9105 33.7092 53.8843C33.9399 53.9341 34.1792 53.9533 34.4185 53.949C35.7877 57.6116 38.9493 60.7241 43.2256 62.5721C43.1395 62.7676 43.0882 62.9763 43.0739 63.1891ZM45.4766 63.2965C45.476 63.2987 45.4752 63.3008 45.4744 63.3029C44.7938 64.9609 42.7749 64.0017 43.6884 62.4362L45.8639 58.7857C46.2628 58.9195 46.6718 59.039 47.0901 59.1458C47.0987 59.202 45.5003 63.2211 45.4766 63.2965ZM47.7771 63.8124C47.356 65.4711 45.3364 64.9652 45.8115 63.4125L47.5407 59.2525C47.9518 59.345 48.3708 59.4233 48.797 59.4866C48.8013 59.5023 47.7771 63.8124 47.7771 63.8124ZM50.1482 64.0743C49.998 65.8589 47.785 65.5494 48.1818 63.7718C48.1818 63.7733 49.17 59.5485 49.1736 59.5393C49.589 59.5912 50.0102 59.6311 50.4378 59.6553C50.4529 59.6937 50.1496 64.0387 50.1482 64.0743ZM50.5334 64.0472C50.5334 64.0479 50.7691 59.7272 50.7727 59.7165C51.1867 59.7336 51.7983 59.7457 52.2245 59.703C52.2446 59.74 52.5192 64.0024 52.5235 64.0373C52.6572 65.7842 50.4277 65.8198 50.5334 64.0472ZM2.45759 36.9505C2.65595 36.8004 3.08286 36.8082 3.62261 36.7783C6.3688 36.7783 12.748 36.9541 13.9885 36.9541C15.229 36.9541 24.0001 37.919 25.3729 38.3581C25.9931 38.5338 26.1261 39.1472 25.3729 39.1913C24.6197 39.2354 15.2563 39.3678 13.9274 39.3678C12.8968 39.3678 7.53598 39.35 4.43763 38.7416C2.7616 38.4121 1.86178 37.4003 2.45759 36.9505ZM5.474 40.1989C7.06882 40.2431 15.0422 40.2872 15.9729 40.2431C16.9029 40.1989 24.1238 39.8047 24.9654 39.7606C26.7858 39.666 27.3752 40.4686 25.4526 40.9013C24.4781 41.1212 15.4856 42.1295 8.66363 41.9978C7.37858 42.042 5.65153 41.3837 5.20808 40.7696C4.76536 40.1555 5.25264 40.1989 5.474 40.1989ZM8.57523 43.0944C9.68276 43.0944 22.7503 42.1295 25.4972 41.5595C27.8862 41.1994 27.3472 42.4148 26.3827 42.612C25.5719 42.7778 15.8838 44.6293 10.9671 44.7168C9.32771 44.6734 7.42314 43.1378 8.57523 43.0944ZM11.8971 45.8134C13.4481 45.6376 23.7694 44.0152 26.5602 43.2695C29.0843 42.6219 28.5747 44.2828 27.6677 44.5418C26.8599 44.7723 18.0636 46.8922 16.0613 46.9982C15.2123 47.0424 14.361 46.9856 13.5257 46.8288C10.6969 46.2688 11.8971 45.8134 11.8971 45.8134ZM16.0613 48.0941C17.1688 47.8749 26.1613 45.8568 28.7307 44.8926C29.9827 44.4607 30.3593 45.6782 29.5723 46.0326C29.085 46.2517 22.1746 49.1024 18.8966 49.2781C17.7007 49.2781 15.4885 48.6406 16.0613 48.0941ZM30.7236 46.2517C29.7052 46.7342 23.5035 49.3223 21.1109 49.8488C20.7789 49.9364 20.4282 50.0815 20.4562 50.2644C20.6689 51.6648 25.0717 50.4736 25.3772 50.3768C27.0705 49.8396 30.5224 48.5851 31.9864 47.1725C31.6321 46.9975 30.8128 46.4275 30.7236 46.2517ZM32.5844 47.7432C31.9203 48.1816 27.5786 50.4195 25.5856 51.0329C24.5442 51.3766 25.6402 52.4369 27.6742 51.8626C29.9223 51.5175 33.2046 48.8839 33.7365 48.4015C33.4705 48.2698 32.8949 47.919 32.5844 47.7432ZM34.6226 48.928C33.8198 49.4717 32.2746 50.4878 31.2936 51.1361C30.889 51.4037 29.923 51.9324 29.9438 52.3551C29.9539 52.5572 30.342 52.9407 32.1151 52.3031C33.2176 51.8562 34.5522 50.9475 35.6856 49.323C35.4642 49.2561 34.8878 49.059 34.6226 48.928ZM36.6156 49.5856C36.2002 49.9969 35.6633 50.559 35.1379 51.077C34.6543 51.6947 33.5762 52.1395 33.9471 52.8532C34.3488 53.626 35.6137 52.5138 36.0694 52.0882C36.7134 51.4855 37.335 50.6892 37.5686 49.8922C37.2581 49.8047 36.9038 49.7172 36.6156 49.5856Z" fill="#7F7F7F"/>
<path d="M21.1999 36.6036C22.352 36.6036 26.2495 36.8668 27.6675 36.8668C31.7412 36.8668 37.2537 36.1553 41.0427 36.9259C43.3979 37.4048 43.7357 38.0801 43.7357 38.8059C43.7357 39.7502 42.9387 40.3174 42.3737 40.7272C41.7097 41.2097 39.6714 42.3938 39.583 45.4643C39.0519 45.2451 38.2987 45.1135 38.8305 44.0169C39.7584 42.1789 41.8448 39.9402 38.2764 38.9867C37.7136 38.8365 37.0201 38.7383 36.1727 38.7099C33.5595 38.6223 29.7698 38.6031 28.4847 38.384C27.2004 38.1648 22.3513 37.0433 21.3329 36.9124C20.8894 36.8661 20.8894 36.647 21.1999 36.6036Z" fill="white" fill-opacity="0.4"/>
<path d="M31.4409 39.2705C32.3709 39.2705 35.2191 39.2513 36.1743 39.2961C38.8163 39.4206 40.7029 40.6951 38.7947 43.0867C38.421 43.5543 37.422 44.5341 37.0231 44.8849C36.6688 45.1482 36.004 44.7092 36.5796 44.0517C35.8264 44.49 34.8964 44.4025 35.3392 43.3942C34.6744 43.9207 33.5675 43.9641 34.2316 42.605C33.7889 42.9558 32.5484 42.9124 33.3455 41.8593C32.6814 42.0784 31.9282 41.6835 32.4155 41.026C31.5738 41.1583 31.0866 40.5435 31.9727 40.0618C31.1311 40.2788 30.9098 39.3139 31.4409 39.2705ZM28.842 38.8044C28.4834 38.7816 26.9274 38.5311 26.9648 39.3616C27.0021 40.1927 28.7306 39.8789 29.0857 39.8134C29.7397 39.6932 30.2622 39.4953 30.2471 39.2271C30.232 38.9517 29.5507 38.8485 28.842 38.8044ZM28.9053 40.2283C28.5272 40.2567 27.1682 40.1906 27.3802 40.9506C27.447 41.1896 27.9465 41.6735 29.6175 41.2715C30.3499 41.095 30.7294 40.7065 30.7294 40.3976C30.7294 40.128 29.7447 40.165 28.9053 40.2283ZM29.9783 41.4622C29.7095 41.5063 28.1514 41.6116 28.4123 42.3894C28.5948 42.9316 28.8751 42.7601 29.3502 42.8163C29.6635 42.8533 31.9849 42.2058 31.622 41.4686C31.5142 41.2494 30.8314 41.3234 29.9783 41.4622ZM30.7488 42.5644C29.2035 43.1857 29.2237 43.6062 29.2941 43.8332C29.3638 44.0609 30.0725 44.342 31.5386 43.6325C32.2811 43.2732 32.2904 42.8647 32.1078 42.5758C31.88 42.2136 31.3036 42.341 30.7488 42.5644ZM31.8304 43.6091C30.222 44.1641 30.314 44.6708 30.4412 44.9682C30.5813 45.297 31.0894 45.6471 32.432 44.8003C33.2427 44.2893 33.7702 43.861 33.6258 43.5208C33.495 43.212 32.7281 43.2924 31.8304 43.6091ZM32.46 45.2044C32.0381 45.4578 31.8462 45.8008 32.1122 46.1914C32.5879 46.8916 33.9909 45.6563 34.343 45.2785C34.6046 44.9981 34.7721 44.7035 34.624 44.4879C34.471 44.2659 33.9952 44.2829 32.46 45.2044ZM34.9999 45.3233C33.127 46.269 33.3067 46.7273 33.5675 46.9229C33.8557 47.1393 34.5349 47.3663 35.6705 46.0669C36.1685 45.4976 35.8947 44.8743 34.9999 45.3233ZM35.935 46.3152C35.5397 46.7529 34.6133 47.4125 35.3305 47.9042C35.935 48.3184 36.2893 47.8637 36.5868 47.5819C38.3074 45.9431 37.7382 44.9056 35.935 46.3152Z" fill="#4C4C4C" fill-opacity="0.4"/>
<path d="M41.5869 37.7253C42.9021 38.3764 43.4462 39.068 42.0957 40.013C41.9304 40.1283 42.1346 40.4151 42.2999 40.2998C43.7861 39.2609 43.4663 38.1828 41.7457 37.4114C41.5646 37.3218 41.4065 37.6356 41.5869 37.7253Z" fill="#4C4C4C" fill-opacity="0.4"/>
<path d="M59.6393 52.5709C59.6393 51.1719 58.1839 49.7729 56.5675 49.2904C56.1356 49.1936 56.2038 48.8136 56.5402 48.6635C56.8636 48.5183 58.7502 47.2161 58.7236 45.5759C58.7236 43.9841 56.8363 41.5718 51.3382 41.5718C48.104 41.5718 45.4088 42.2955 43.7917 43.6468C44.1684 43.9364 44.6003 44.3705 44.6003 44.8529V53.6816C44.5464 54.2125 44.2769 54.6466 43.8449 55.129C45.2967 56.1494 47.8963 57.1229 51.6285 57.1108C55.6174 57.014 59.6393 55.8513 59.6393 52.5709Z" fill="white" fill-opacity="0.4"/>
<path d="M51.6114 48.3215C53.3269 48.3215 54.7176 47.2217 54.7176 45.8651C54.7176 44.5085 53.3269 43.4087 51.6114 43.4087C49.8958 43.4087 48.5051 44.5085 48.5051 45.8651C48.5051 47.2217 49.8958 48.3215 51.6114 48.3215Z" fill="#4C4C4C" fill-opacity="0.4"/>
<path d="M52.0117 55.1158C53.9348 55.1158 55.4938 53.9548 55.4938 52.5227C55.4938 51.0906 53.9348 49.9297 52.0117 49.9297C50.0885 49.9297 48.5295 51.0906 48.5295 52.5227C48.5295 53.9548 50.0885 55.1158 52.0117 55.1158Z" fill="#4C4C4C" fill-opacity="0.4"/>
<path d="M38.1168 48.2862C38.2383 47.6878 38.4331 47.1064 38.6932 46.5478C38.6781 46.5257 38.2175 45.9422 37.0826 47.5661C36.4559 48.462 37.5627 48.8228 38.1168 48.2862ZM38.0802 51.0443C37.613 51.5816 37.1724 52.0327 36.8814 52.3928C36.2733 53.1457 37.8552 54.0736 38.7076 53.0034C38.4122 52.3806 38.2013 51.7219 38.0802 51.0443ZM59.8829 37.0103C60.1336 36.8697 60.3974 36.7535 60.6706 36.6631C54.9986 34.016 48.0005 34.016 42.3292 36.6631C42.6238 36.7641 42.8883 36.8794 43.1162 37.0103C48.3685 34.7453 54.6766 34.7653 59.8829 37.0103Z" fill="white" fill-opacity="0.4"/>
<path d="M62.494 43.9749C61.8572 41.7818 60.2675 40.8895 59.6508 40.4625C58.411 39.605 58.4786 38.3377 59.538 37.2454C54.4761 35.1327 48.4641 35.1569 43.4619 37.2454C44.5213 38.3377 44.5881 39.605 43.3491 40.4625C42.7324 40.8895 41.1419 41.7818 40.5059 43.9749C45.9127 38.458 57.0872 38.4572 62.494 43.9749ZM66.8271 53.533C66.3053 54.7121 64.6588 54.4666 63.6734 54.0987C62.3582 56.0798 60.1704 57.6923 57.476 58.6664L59.6163 62.2571C63.7755 60.4632 66.8537 57.4603 68.212 53.9244C67.7315 53.872 67.2632 53.7397 66.8271 53.533Z" fill="#4C4C4C" fill-opacity="0.4"/>
<path d="M59.9261 63.1891C64.518 61.2692 67.8937 57.9105 69.2909 53.8843C69.0578 53.933 68.8197 53.9547 68.5815 53.949C67.2124 57.6116 64.0508 60.7241 59.7745 62.5721C59.8606 62.7676 59.9119 62.9763 59.9261 63.1891ZM57.5228 63.2965L57.5256 63.3029C58.2063 64.9609 60.2251 64.0017 59.3116 62.4362L57.1361 58.7857C56.7372 58.9195 56.329 59.039 55.91 59.1458C55.9014 59.202 57.4998 63.2211 57.5228 63.2965ZM55.2222 63.8124C55.6441 65.4711 57.6629 64.9652 57.1879 63.4125C57.1879 63.4125 55.5492 59.4681 55.4586 59.2525C55.0483 59.345 54.6293 59.4233 54.2031 59.4866C54.1987 59.5023 55.2222 63.8124 55.2222 63.8124ZM52.8519 64.0743C53.0021 65.8589 55.2143 65.5494 54.8176 63.7718C54.8183 63.7733 53.8301 59.5485 53.8257 59.5393C53.4103 59.5912 52.9884 59.6311 52.5615 59.6553C52.5472 59.6937 52.8505 64.0387 52.8519 64.0743ZM100.542 36.9505C100.344 36.8004 99.9172 36.8082 99.3774 36.7783C96.6312 36.7783 90.252 36.9541 89.0115 36.9541C87.771 36.9541 78.9999 37.919 77.6272 38.3581C77.0069 38.5338 76.874 39.1472 77.6272 39.1913C78.3804 39.2354 87.743 39.3678 89.0719 39.3678C90.1032 39.3678 95.4641 39.35 98.5617 38.7416C100.239 38.4121 101.139 37.4003 100.542 36.9505ZM97.5253 40.1989C95.9305 40.2431 87.9579 40.2872 87.0272 40.2431C86.0972 40.1989 78.8763 39.8047 78.0347 39.7606C76.2142 39.666 75.6241 40.4686 77.5474 40.9013C78.5213 41.1212 87.5144 42.1295 94.3357 41.9978C95.62 42.042 97.3478 41.3837 97.7912 40.7696C98.2347 40.1555 97.7474 40.1989 97.5253 40.1989ZM94.4248 43.0944C93.3173 43.0944 80.2498 42.1295 77.5028 41.5595C75.1139 41.1994 75.6529 42.4148 76.6174 42.612C77.4281 42.7778 87.1156 44.6293 92.033 44.7168C93.6716 44.6734 95.5762 43.1378 94.4248 43.0944ZM91.103 45.8134C89.5527 45.6376 79.2306 44.0152 76.4406 43.2695C73.9165 42.6219 74.4253 44.2828 75.3331 44.5418C76.1402 44.7723 84.9364 46.8922 86.9388 46.9982C87.7878 47.0424 88.639 46.9856 89.4744 46.8288C92.3032 46.2688 91.103 45.8134 91.103 45.8134ZM86.9388 48.0941C85.8312 47.8749 76.8388 45.8568 74.2694 44.8926C73.0181 44.4607 72.6408 45.6782 73.4278 46.0326C73.9151 46.2517 80.8254 49.1024 84.1035 49.2781C85.2994 49.2781 87.5116 48.6406 86.9388 48.0941ZM72.2757 46.2517C73.2941 46.7342 79.4965 49.3223 81.8884 49.8488C82.2204 49.9364 82.5712 50.0815 82.5431 50.2644C82.3304 51.6648 77.9276 50.4736 77.6222 50.3768C75.9296 49.8396 72.4769 48.5851 71.0129 47.1725C71.368 46.9975 72.1873 46.4275 72.2757 46.2517ZM70.415 47.7432C71.079 48.1816 75.4208 50.4195 77.4137 51.0329C78.4551 51.3766 77.3591 52.4369 75.3252 51.8626C73.077 51.5175 69.7947 48.8839 69.2629 48.4015C69.5295 48.2698 70.1052 47.919 70.415 47.7432ZM68.3781 48.928C69.1802 49.4717 70.7261 50.4878 71.7072 51.1361C72.1118 51.4037 73.0778 51.9324 73.0569 52.3551C73.0469 52.5572 72.6588 52.9407 70.8857 52.3031C69.7832 51.8562 68.4486 50.9475 67.3152 49.323C67.5358 49.2561 68.1115 49.059 68.3781 48.928ZM66.3837 49.5856C66.7991 49.9969 67.3367 50.559 67.8621 51.077C68.3465 51.6947 69.4246 52.1395 69.053 52.8532C68.6512 53.626 67.3863 52.5138 66.9314 52.0882C66.2874 51.4855 65.665 50.6892 65.4314 49.8922C65.7419 49.8047 66.0962 49.7172 66.3837 49.5856Z" fill="white" fill-opacity="0.4"/>
<path d="M81.8 36.6036C80.6479 36.6036 76.7503 36.8668 75.3323 36.8668C71.258 36.8668 65.7455 36.1553 61.9572 36.9259C59.602 37.4048 59.2642 38.0801 59.2642 38.8059C59.2642 39.7502 60.0605 40.3174 60.6254 40.7272C61.2902 41.2097 63.3285 42.3938 63.4169 45.4643C63.948 45.2451 64.7012 45.1135 64.1701 44.0169C63.2415 42.1789 61.1558 39.9402 64.7242 38.9867C65.2869 38.8365 65.9805 38.7383 66.8286 38.7099C69.4418 38.6223 73.2315 38.6031 74.5159 38.384C75.8002 38.1648 80.6493 37.0433 81.6677 36.9124C82.1104 36.8661 82.1104 36.647 81.8 36.6036Z" fill="white" fill-opacity="0.4"/>
<path d="M71.5585 39.2705C70.6285 39.2705 67.7802 39.2513 66.8251 39.2961C64.1831 39.4206 62.2965 40.6951 64.2047 43.0867C64.5784 43.5543 65.5774 44.5341 65.9763 44.8849C66.3306 45.1482 66.9954 44.7092 66.419 44.0517C67.1729 44.49 68.1029 44.4025 67.6602 43.3942C68.3243 43.9207 69.4318 43.9641 68.7677 42.605C69.2105 42.9558 70.4509 42.9124 69.6532 41.8593C70.318 42.0784 71.0712 41.6835 70.5832 41.026C71.4255 41.1583 71.9128 40.5435 71.0259 40.0618C71.869 40.2788 72.0903 39.3139 71.5585 39.2705ZM74.158 38.8044C74.5167 38.7816 76.0727 38.5311 76.0353 39.3616C75.9979 40.1927 74.2694 39.8789 73.9144 39.8134C73.2604 39.6932 72.7379 39.4953 72.753 39.2271C72.7681 38.9517 73.4494 38.8485 74.158 38.8044ZM74.0955 40.2283C74.4728 40.2567 75.8326 40.1906 75.6199 40.9506C75.5531 41.1896 75.0543 41.6735 73.3833 41.2715C72.6502 41.095 72.2714 40.7065 72.2714 40.3976C72.2714 40.128 73.2553 40.165 74.0955 40.2283ZM73.021 41.4622C73.2898 41.5063 74.848 41.6116 74.5871 42.3894C74.4046 42.9316 74.1243 42.7601 73.6492 42.8163C73.3358 42.8533 71.0144 42.2058 71.3774 41.4686C71.4859 41.2494 72.1687 41.3234 73.021 41.4622ZM72.2513 42.5644C73.7958 43.1857 73.7757 43.6062 73.706 43.8332C73.6355 44.0609 72.9276 44.342 71.4615 43.6325C70.719 43.2732 70.709 42.8647 70.8915 42.5758C71.1201 42.2136 71.6965 42.341 72.2513 42.5644ZM71.1689 43.6091C72.7774 44.1641 72.6854 44.6708 72.5582 44.9682C72.4181 45.297 71.9099 45.6471 70.5667 44.8003C69.756 44.2893 69.2284 43.861 69.3736 43.5208C69.5051 43.212 70.2713 43.2924 71.1689 43.6091ZM70.5393 45.2044C70.9612 45.4578 71.1531 45.8008 70.8872 46.1914C70.4121 46.8916 69.0085 45.6563 68.6563 45.2785C68.3954 44.9981 68.2273 44.7035 68.3753 44.4879C68.5284 44.2659 69.0049 44.2829 70.5393 45.2044ZM68.0002 45.3233C69.8731 46.269 69.6934 46.7273 69.4325 46.9229C69.1443 47.1393 68.4652 47.3663 67.3296 46.0669C66.8315 45.4976 67.1054 44.8743 68.0002 45.3233ZM67.0644 46.3152C67.4597 46.7529 68.3861 47.4125 67.6695 47.9042C67.0644 48.3184 66.7101 47.8637 66.4132 47.5819C64.6927 45.9431 65.2619 44.9056 67.0644 46.3152Z" fill="#4C4C4C" fill-opacity="0.4"/>
<path d="M61.413 37.7253C60.0978 38.3764 59.5537 39.068 60.9049 40.013C61.0695 40.1283 60.8654 40.4151 60.7001 40.2998C59.2145 39.2609 59.5343 38.1828 61.2549 37.4114C61.4353 37.3218 61.5934 37.6356 61.413 37.7253Z" fill="#4C4C4C" fill-opacity="0.4"/>
<path d="M64.883 48.2865C64.7608 47.688 64.5668 47.1066 64.3059 46.548C64.321 46.526 64.7817 45.9425 65.9165 47.5663C66.5439 48.4622 65.4371 48.823 64.883 48.2865ZM64.9189 51.0446C65.3861 51.5818 65.8274 52.033 66.1185 52.393C66.7265 53.1459 65.1446 54.0738 64.2922 53.0036C64.5876 52.3767 64.8004 51.7206 64.9189 51.0446Z" fill="#4C4C4C" fill-opacity="0.4"/>
</g>
<defs>
<clipPath id="clip0_143_5623">
<rect width="101" height="100" fill="white"/>
</clipPath>
</defs>
</svg>
