<svg width="102" height="100" viewBox="0 0 102 100" fill="none" xmlns="http://www.w3.org/2000/svg">
<g clip-path="url(#clip0_143_5660)">
<path d="M51.9999 100C65.6224 100 78.4293 94.7988 88.0623 85.3552C97.6948 75.9113 103 63.3553 103 49.9999C103 36.6447 97.6948 24.0887 88.0623 14.6448C78.4295 5.20097 65.6224 0 51.9999 0C23.8784 0 1 22.4298 1 49.9999C1 63.3553 6.30499 75.9113 15.9377 85.3552C25.5705 94.7988 38.3776 100 51.9999 100Z" fill="white" fill-opacity="0.4"/>
<path d="M2.76465 49.9999C2.76465 37.1069 7.8861 24.9852 17.1855 15.8681C26.485 6.75081 38.8489 1.72998 52 1.72998C65.151 1.72998 77.5152 6.75081 86.8144 15.8681C96.1138 24.9852 101.235 37.1067 101.235 49.9999C101.235 76.6162 79.1484 98.27 52 98.27C38.8489 98.27 26.485 93.249 17.1855 84.1319C7.8861 75.0146 2.76465 62.8931 2.76465 49.9999Z" fill="#4C4C4C" fill-opacity="0.4"/>
<path d="M51.9999 3.71924C25.929 3.71924 4.7937 24.4401 4.7937 49.9998C4.7937 75.5595 25.929 96.2806 51.9999 96.2806C78.0708 96.2806 99.206 75.5595 99.206 49.9998C99.206 24.4401 78.0708 3.71924 51.9999 3.71924Z" fill="white" fill-opacity="0.4"/>
<path d="M52 79.5625C35.3467 79.5625 21.8462 66.3269 21.8462 50C21.8462 33.6733 35.3467 20.4375 52 20.4375C68.6532 20.4375 82.1537 33.6733 82.1537 50C82.1537 66.3269 68.6534 79.5625 52 79.5625Z" fill="#4C4C4C" fill-opacity="0.4"/>
<path d="M23.7861 50H52V22.3394C36.4181 22.3394 23.7861 34.7238 23.7861 50ZM52 50V77.6608C67.5818 77.6608 80.2138 65.2765 80.2138 50H52Z" fill="white" fill-opacity="0.4"/>
<path d="M29.8407 21.7938C28.8411 20.8414 27.2961 20.5543 25.8456 21.436C26.1226 20.7321 26.0095 20.0137 25.8624 19.6173C25.2375 18.5002 25.0194 18.3604 24.5044 17.9367C22.8372 16.5652 21.0826 17.7361 19.8277 19.2023L13.7646 26.2861L23.2957 34.127L29.6896 26.6566C31.1506 24.9497 31.3765 23.2574 29.8407 21.7938ZM53.5794 18.4278L56.8526 9.9221V18.4278H59.3403V6.24609H55.6026L52.203 14.968H52.2382L48.8385 6.24609H45.1011V18.4278H47.5885V9.9221L50.8619 18.4278H53.5794ZM87.0254 23.4957L82.3418 29.9966L89.6027 26.6171L91.5252 28.9446L80.0968 34.3759L77.8405 31.6223L82.3357 25.1784L82.3091 25.1461L74.9453 28.117L72.6669 25.3808L80.462 15.5505L82.3846 17.8781L77.5031 24.1385L84.9629 20.9987L87.0254 23.4957Z" fill="#4C4C4C" fill-opacity="0.4"/>
<path d="M21.1524 20.9557C21.5743 20.4626 22.5278 20.4829 23.1411 20.9872C23.8153 21.5418 23.8169 22.3282 23.3641 22.857L19.7635 27.0638L17.5107 25.2104L21.1524 20.9557ZM27.5587 25.9184L23.7625 30.3536L21.382 28.3954L25.2089 23.924C25.641 23.4191 26.6045 23.272 27.2544 23.8068C27.99 24.4116 28.0628 25.3294 27.5587 25.9184Z" fill="white" fill-opacity="0.4"/>
</g>
<defs>
<clipPath id="clip0_143_5660">
<rect width="102" height="100" fill="white"/>
</clipPath>
</defs>
</svg>
