<svg width="102" height="100" viewBox="0 0 102 100" fill="none" xmlns="http://www.w3.org/2000/svg">
<g clip-path="url(#clip0_143_5621)">
<path d="M103 50.6082V50.5998C102.979 50.529 102.728 50.4998 102.265 50.4957L95.4861 50.404C85.1204 50.3165 65.8296 50.1415 64.9541 50.1415H64.7416C63.7284 50.0919 62.7147 50.2305 61.7539 50.5498L61.3629 50.6623C60.2716 51.0388 59.1365 51.2796 57.9841 51.379C56.7814 51.4207 52.1914 51.4165 52.0001 51.4165C51.8089 51.4165 47.2146 51.4165 46.0119 51.3832C44.8594 51.2843 43.7243 51.0435 42.6331 50.6665L42.2506 50.554C41.2856 50.234 40.2676 50.0955 39.2501 50.1457H39.0631C38.1834 50.1457 18.8926 50.229 8.53115 50.3248L1.7269 50.4082C1.2594 50.4082 0.991649 50.4415 0.995899 50.5165L1.38265 50.6123C2.81065 50.8998 4.2599 51.0707 5.71765 51.129C8.4929 51.1832 28.8164 51.6832 29.3051 51.6915C30.4016 51.6623 31.4939 51.854 32.5139 52.2498H38.8761C38.8761 52.2498 36.3091 52.3957 36.2709 52.554H36.1094C35.4719 52.554 33.5339 52.554 32.4374 52.504C32.4374 52.504 32.3566 52.804 33.4744 52.804C33.8654 53.0623 34.2776 53.3082 34.6474 53.5123H40.1171C40.1171 53.5123 37.9666 53.6373 37.9241 53.7957C37.6691 53.7957 36.7341 53.7707 35.8416 53.7457L34.5879 53.7082C34.5879 53.7082 34.5241 53.9748 35.5526 53.979L35.7269 54.0873C37.7796 54.9915 39.9556 55.5998 42.1869 55.8915C43.0369 56.054 43.8869 56.1623 44.7496 56.2248C44.7496 56.2248 45.7909 56.3165 45.6081 56.3082C43.1767 56.212 40.7588 55.9038 38.3831 55.3873C36.4623 54.9287 34.6296 54.1689 32.9559 53.1373C32.0246 52.5311 30.9371 52.1959 29.8194 52.1707C29.0969 52.1248 5.8154 51.2248 5.7644 51.2248C4.26941 51.1742 2.78319 50.9788 1.3274 50.6415L1.00015 50.5207C1.00015 50.5832 1.16165 50.7498 1.29765 50.8707C2.02015 51.4957 4.74015 52.7915 6.32965 53.1748C9.09215 53.829 26.0709 55.9457 29.0884 56.279L30.7544 56.4623C35.3146 56.9457 41.0479 57.5623 43.9676 57.854C44.5226 57.9523 45.0934 57.9209 45.6336 57.7623C47.6703 57.0237 49.8288 56.6607 52.0001 56.6915C54.1776 56.6749 56.3407 57.039 58.3879 57.7665C58.9212 57.9231 59.4846 57.9545 60.0326 57.8582C62.9566 57.5707 68.7026 56.9415 73.2246 56.454L74.9119 56.2707C77.9294 55.9415 94.9081 53.904 97.6664 53.2498C99.2601 52.8748 101.98 51.5748 102.698 50.9498C102.818 50.856 102.918 50.7416 102.996 50.6123L103 50.6082ZM50.8739 54.754C47.4951 54.754 44.1546 54.7082 43.1814 54.4707C40.8651 53.9082 39.7856 52.8707 39.6029 52.554C39.4201 52.2415 39.4669 52.2457 39.7516 52.2457H64.2316C64.5206 52.2457 64.5376 52.2748 64.3761 52.5582C64.2146 52.8373 63.1266 53.9082 60.8019 54.4707C59.8286 54.7082 56.4881 54.7457 53.1094 54.754H50.8739ZM102.673 50.7082C101.217 51.0468 99.731 51.2436 98.2359 51.2957C98.1849 51.2957 74.8779 52.1165 74.1766 52.1707C73.059 52.1959 71.9715 52.5311 71.0401 53.1373C69.3677 54.1685 67.5365 54.9283 65.6171 55.3873C63.2402 55.9055 60.8209 56.215 58.3879 56.3123C58.2051 56.3123 59.2464 56.2248 59.2464 56.2248C60.1051 56.1628 60.9594 56.0515 61.8049 55.8915C64.0354 55.5971 66.211 54.9895 68.2649 54.0873L68.4689 53.979C69.4931 53.979 69.4379 53.7082 69.4379 53.7082L68.1841 53.7498C67.2576 53.7707 66.3056 53.7915 66.0676 53.7915C66.0251 53.6415 63.9001 53.5123 63.9001 53.5123H69.3614C69.7509 53.2902 70.1335 53.0568 70.5089 52.8123C71.6309 52.8123 71.5544 52.5123 71.5544 52.5123C70.2768 52.5452 68.9989 52.5591 67.7209 52.554C67.6826 52.3998 65.2984 52.254 65.2984 52.254H71.4481C72.4759 51.8584 73.5744 51.6699 74.6781 51.6998L98.2784 51.2248C99.7354 51.1662 101.185 50.992 102.613 50.704L102.902 50.6332L102.673 50.7082ZM51.8344 52.9248H52.2169L51.4731 53.4457V53.8582H50.9121V53.454L50.1089 52.9248H50.7676L51.3116 53.2582L51.8344 52.9248ZM55.2726 53.6873H56.5561V53.854H54.7116V52.9207H55.2726V53.6873ZM57.5676 53.6873H58.8979V53.854H57.0194V52.9207H58.8809V53.0915H57.5676V53.304H58.8554V53.4748H57.5676V53.6832V53.6873ZM46.8491 52.9248H47.4101V53.8582H46.8364V53.479H45.6549V53.854H45.0939V52.9248H45.6549V53.2998H46.8364L46.8491 52.9248ZM49.3906 53.4498L50.1131 53.8582H49.4756C49.4756 53.8582 48.8976 53.454 48.7616 53.3498C49.3354 53.3707 49.4289 53.3082 49.4289 53.2165C49.4289 53.1248 48.9784 53.0665 48.4684 53.0957V53.8582H47.8734V52.929H49.1696C49.8071 52.929 50.0026 53.0582 50.0026 53.1915C50.0026 53.3082 49.7689 53.4165 49.3906 53.4498ZM60.9251 53.2165C60.9251 53.1207 60.4746 53.0665 59.9646 53.0957V53.8665H59.3696V52.9373H60.6531C61.2906 52.9373 61.4861 53.079 61.4861 53.1998C61.4861 53.3165 61.2524 53.4248 60.8741 53.4498L61.5966 53.8582H60.9591C60.9591 53.8582 60.3811 53.454 60.2451 53.3498C60.8146 53.3707 60.9251 53.3082 60.9251 53.2165ZM54.3079 53.579C54.3079 53.8165 53.7851 53.8957 53.2411 53.8957C52.9455 53.895 52.6502 53.8755 52.3571 53.8373L52.4166 53.6373C52.6831 53.6836 52.9537 53.7031 53.2241 53.6957C53.6789 53.6957 53.7086 53.6415 53.7086 53.5832C53.7086 53.5248 53.5811 53.4873 53.3771 53.4873L52.9606 53.4415C52.5526 53.3915 52.3869 53.3748 52.3869 53.1373C52.3869 52.8998 52.9139 52.8582 53.2496 52.8582C53.5455 52.8665 53.8407 52.8916 54.1336 52.9332L54.0911 53.1123C53.8604 53.0778 53.6275 53.0597 53.3941 53.0582C53.0329 53.0582 52.9564 53.0748 52.9564 53.1415C52.9564 53.2082 53.0711 53.2373 53.2539 53.2373L53.7341 53.2707C54.1166 53.3248 54.2994 53.4165 54.3079 53.579ZM42.9689 53.3748C42.9689 53.5915 43.5086 53.6832 43.8656 53.6832C44.2226 53.6832 44.5626 53.6415 44.6434 53.6415L44.5839 53.8373C44.4819 53.8457 44.1334 53.879 43.7509 53.879C43.0369 53.879 42.3994 53.7123 42.3994 53.3748C42.3994 53.0373 43.0369 52.8665 43.7509 52.8665C44.1674 52.8665 44.4946 52.9082 44.5839 52.9082L44.6434 53.104C44.3849 53.0783 44.1254 53.0644 43.8656 53.0623C43.4916 53.0623 42.9689 53.1582 42.9689 53.3748ZM47.2061 44.2082L44.8686 42.1373H46.4241L47.3124 42.8748L48.2814 43.6915L48.4599 43.8457L48.6299 43.6957L50.4276 42.1498H51.0311L48.8636 44.1915L48.7829 44.2748V46.0707H47.2954V44.2873L47.2104 44.2082H47.2061ZM70.0584 46.0707H63.7981V42.1332H65.1836V45.5832H70.0584V46.0707ZM79.3489 46.0457H72.9866V42.1415H79.2681V42.6248H74.3254V43.8415H79.1874V44.3415H74.3254V45.5623H79.3489V46.0457ZM26.5894 46.054H25.1741V42.1248H26.5894V43.8623H30.4739V42.1248H31.8806V46.054H30.4781V44.3332H26.5851L26.5894 46.054ZM37.4014 46.0415H35.9734V42.104H39.7261C40.4401 42.0623 41.1584 42.1832 41.8129 42.4582C41.9551 42.5174 42.0777 42.6142 42.1671 42.7378C42.2564 42.8615 42.3089 43.007 42.3186 43.1582C42.3144 43.6082 41.9786 44.0498 40.7844 44.1748L40.4444 44.2165L40.7036 44.4165C41.0861 44.7207 42.0296 45.6457 42.4716 46.054L42.5141 46.0665H40.8779C40.6356 45.804 39.2926 44.6082 38.7104 44.0248C39.2709 44.0059 39.8284 43.9376 40.3764 43.8207C40.4952 43.7831 40.5994 43.7105 40.6746 43.6129C40.7499 43.5152 40.7927 43.3972 40.7971 43.2748C40.7943 43.1983 40.7727 43.1235 40.7342 43.0568C40.6958 42.9901 40.6416 42.9334 40.5761 42.8915C40.2361 42.6123 39.4499 42.6123 38.5319 42.6123H37.4014V46.0415ZM58.2476 45.0332C58.2476 44.7957 58.0394 44.6832 57.8311 44.6248C57.5482 44.551 57.2597 44.4995 56.9684 44.4707C56.4799 44.4127 55.9924 44.346 55.5064 44.2707C55.0027 44.2257 54.5123 44.0871 54.0614 43.8623C53.9338 43.79 53.8293 43.6842 53.7595 43.5569C53.6897 43.4296 53.6574 43.2858 53.6661 43.1415C53.6619 42.729 54.0231 42.4665 54.6096 42.2957C55.2301 42.1457 55.8719 42.0748 56.5094 42.0873C57.5039 42.0998 58.4984 42.1707 59.4844 42.3123L59.3866 42.7873C58.6292 42.6528 57.8614 42.5831 57.0916 42.579C56.6713 42.5613 56.2503 42.5935 55.8379 42.6748C55.5786 42.7457 55.4214 42.8998 55.4214 43.0832C55.4296 43.1824 55.4705 43.2764 55.538 43.3508C55.6054 43.4252 55.6958 43.4761 55.7954 43.4957C56.0496 43.5658 56.31 43.6119 56.5731 43.6332C57.0151 43.6748 57.6314 43.7582 58.2179 43.8415C58.7101 43.8806 59.1888 44.0181 59.6246 44.2457C59.7532 44.3154 59.86 44.4182 59.9334 44.5431C60.0068 44.6679 60.044 44.81 60.0411 44.954C60.0454 45.354 59.6756 45.6623 59.0041 45.8748C58.1867 46.0884 57.3424 46.1866 56.4966 46.1665L56.5051 46.1415C55.5462 46.1335 54.589 46.0598 53.6406 45.9207L53.7639 45.3582C54.6351 45.5457 55.5276 45.6415 56.4201 45.6415C56.9275 45.6758 57.4367 45.6078 57.9161 45.4415C58.0066 45.4136 58.0865 45.3598 58.1456 45.287C58.2046 45.2143 58.2402 45.1259 58.2476 45.0332ZM14.5279 44.1123C14.5279 43.454 14.9656 42.9832 15.7094 42.6373C16.6198 42.259 17.6025 42.0771 18.5909 42.104C19.4026 42.1082 20.2144 42.1665 21.0176 42.2707L21.1324 42.8082C20.3974 42.7214 19.6583 42.6713 18.9181 42.6582C18.2801 42.6533 17.6465 42.762 17.0481 42.979C16.4829 43.1957 16.0154 43.5498 16.0154 44.0998C16.0154 44.6457 16.4829 45.004 17.0481 45.2207C17.6431 45.4373 18.2806 45.5457 18.9181 45.5373C19.6569 45.5255 20.3945 45.4768 21.1281 45.3915L20.9836 45.9415C20.1806 46.048 19.3715 46.1037 18.5611 46.1082C17.5837 46.1336 16.6119 45.9561 15.7094 45.5873C14.9444 45.2415 14.5279 44.754 14.5279 44.1123ZM84.3129 46.0832H82.9061V42.1415H86.6589C87.3735 42.0998 88.0881 42.2225 88.7456 42.4998C88.8873 42.5587 89.0095 42.6549 89.0987 42.7777C89.188 42.9006 89.2408 43.0452 89.2514 43.1957C89.2471 43.6498 88.9114 44.0915 87.7171 44.2165L87.3771 44.2498L87.6364 44.4582C88.0189 44.7582 88.9624 45.6623 89.4044 46.0915L87.7936 46.0957C87.5514 45.8332 86.2041 44.6373 85.6261 44.054C86.1883 44.0359 86.7475 43.9661 87.2964 43.8457C87.4141 43.8082 87.5172 43.7361 87.5917 43.6392C87.6662 43.5423 87.7085 43.4253 87.7129 43.304C87.71 43.2274 87.6884 43.1527 87.65 43.086C87.6115 43.0193 87.5573 42.9626 87.4919 42.9207C87.1434 42.6373 86.3656 42.6373 85.4476 42.6373H84.3171L84.3129 46.0832Z" fill="#7F7F7F"/>
</g>
<defs>
<clipPath id="clip0_143_5621">
<rect width="102" height="100" fill="white"/>
</clipPath>
</defs>
</svg>
