<svg width="101" height="100" viewBox="0 0 101 100" fill="none" xmlns="http://www.w3.org/2000/svg">
<path d="M92.3265 2.38349C88.0825 1.45228 68.7499 0.0209262 51.7211 0C34.4259 0.0209262 14.9094 1.45228 10.6866 2.38349C8.63643 2.83341 2.38879 4.20826 2.39513 11.388C2.38879 20.6249 2.63185 67.0371 7.42326 73.52C15.7232 84.7762 49.3116 99.2341 50.7573 99.8452C51.2117 100.048 51.7507 100.05 52.2537 99.8452C53.7099 99.2404 88.594 84.7532 95.6405 73.4133C100.229 66.0305 100.599 11.9258 100.616 11.3859C100.603 4.20826 94.3555 2.83341 92.3265 2.38349ZM52.2558 96.3526C52.2558 96.3672 52.2558 96.3672 52.2558 96.3526V96.3526Z" fill="white" fill-opacity="0.4"/>
<path d="M92.3811 71.4543C86.5055 80.89 56.6326 93.8684 51.5073 96.0321C46.4897 93.837 17.5637 80.8481 10.5278 71.2953C7.38491 67.0536 6.21612 32.2972 6.19287 11.3878C6.21612 8.36814 7.65333 6.93051 11.5423 6.09137C15.1437 5.28153 34.1551 3.80832 51.7208 3.81251C69.0117 3.80832 87.8476 5.28153 91.4723 6.09137C95.3401 6.93051 96.7773 8.36814 96.7689 11.3878C96.7773 22.1711 95.6297 66.2123 92.3811 71.4543Z" fill="white" fill-opacity="0.4"/>
<path d="M53.0587 26.3778C53.5807 24.5928 57.5267 22.0167 58.1417 22.565C58.1185 21.9058 60.9887 19.3026 62.0476 19.7567C61.7918 18.9678 65.7273 16.5299 66.6488 17.2142C66.877 16.2244 72.5794 15.4773 73.7101 16.419C74.3611 15.697 79.4188 16.9108 79.5414 18.1684C80.4735 17.3628 85.6326 22.7617 85.6411 25.4779C85.6411 26.5389 80.7884 22.2553 77.7237 23.1991C72.6724 24.7225 66.2303 30.0545 60.6569 38.0839C59.0992 40.2665 55.1109 41.0638 54.2359 37.5021C54.2359 37.5042 52.5155 28.1732 53.0587 26.3778Z" fill="#4C4C4C" fill-opacity="0.4"/>
<path d="M52.6317 76.1692C51.8201 74.8362 52.0716 73.2395 52.7374 72.6201C53.68 71.7224 56.379 72.4464 56.5904 71.6136C57.123 69.7072 55.7534 69.0334 56.0028 66.3695C56.0704 65.4466 57.8479 58.7084 58.3023 58.1057C58.6785 57.6118 60.9506 56.8271 61.5657 56.5718C61.9397 56.1512 62.2039 55.6427 62.2082 54.7701C59.2577 53.8535 58.4609 56.5886 58.036 56.4672C57.6091 56.3793 58.2537 53.4894 58.6236 53.1839C58.9956 52.8595 62.4787 52.0936 62.8507 51.4867C63.284 50.8443 64.8903 44.6962 62.8507 44.602C63.0325 44.6271 62.7661 44.1856 62.9035 44.2295C67.0968 45.188 69.9184 25.4106 80.1839 25.4797C90.4008 25.5697 89.8681 40.2033 89.2785 40.7349C88.1076 41.7623 86.4167 41.3878 86.3364 42.3232C85.8292 51.2733 77.7512 60.8512 75.3164 60.0163C73.8453 59.5057 75.0966 54.9584 75.7983 54.8768C75.1494 54.588 75.7877 49.9068 76.5465 49.7917C75.9462 49.3795 76.4767 45.0645 77.2418 45.0247C76.8593 44.6857 76.8994 41.731 76.1195 40.2578C75.5468 39.1319 73.0168 38.5251 72.8562 41.2643C74.4054 40.5382 74.5111 45.4872 73.8728 46.3494C73.2366 47.1718 69.1448 49.0656 67.8809 50.1098C67.9739 52.2213 65.9555 60.3239 64.457 62.6655C62.9796 64.9569 61.4917 66.3255 60.6589 68.4391C59.7903 70.5338 60.3356 74.1226 58.4122 75.7486C57.552 76.4601 52.9804 76.7781 52.6317 76.1692Z" fill="#4C4C4C" fill-opacity="0.4"/>
<path d="M87.6722 43.0118C88.1667 42.2062 90.1281 41.886 90.8298 42.271C91.6668 42.7356 92.2818 49.1704 91.4174 49.3692C92.174 49.7542 91.2314 54.6363 90.293 54.6656C91.0369 54.9586 89.4962 59.7465 88.581 59.5917C89.1221 60.3262 86.626 64.2184 85.9602 63.9903C85.7235 68.0082 73.5431 69.9187 73.8158 66.5329C73.9489 64.909 75.7708 67.3009 83.9819 54.6677C87.5834 49.0595 86.9747 44.2193 87.6722 43.0118ZM50.0088 26.432C49.1676 24.5738 45.676 22.1024 45.0863 22.6716C45.0863 21.9915 42.2161 19.3882 41.1805 19.8633C41.413 19.0513 37.4755 16.6134 36.5265 17.3207C36.3278 16.31 30.6255 15.5629 29.518 16.5255C28.8437 15.7827 23.786 16.9964 23.6867 18.2729C22.7314 17.4463 17.5722 22.8452 17.587 25.5845C17.5637 26.6245 22.4164 22.3388 25.4515 23.2533C30.5325 24.806 36.9746 30.1401 42.5712 38.1381C44.1057 40.3542 48.0073 41.1494 48.8844 37.5543C48.8865 37.5543 50.869 28.2568 50.0088 26.432Z" fill="#4C4C4C" fill-opacity="0.4"/>
<path d="M50.4358 76.2235C51.2241 74.8172 51.0804 73.2708 50.3829 72.6221C49.472 71.7557 46.8258 72.5321 46.5849 71.7222C46.0819 69.7928 47.4536 69.119 47.2274 66.4781C47.1365 65.5323 45.359 58.7961 44.9279 58.2144C44.5263 57.6975 42.2564 56.9128 41.6646 56.6784C41.2672 56.2368 41.0051 55.7263 40.9692 54.8243C43.9514 53.9371 44.7482 56.6742 45.1963 56.5738C45.5979 56.4629 44.9553 53.5729 44.6087 53.236C44.2114 52.941 40.7811 52.1249 40.3288 51.5933C39.8617 50.9739 38.3188 44.7819 40.3288 44.6563C40.1766 44.7128 40.4429 44.2692 40.276 44.2838C36.1123 45.2736 33.2907 25.4942 22.9956 25.5863C12.8083 25.6532 13.3409 40.2869 13.9539 40.8415C15.0994 41.848 16.7924 41.4734 16.8431 42.4297C17.3778 51.359 25.4579 60.9369 27.9181 60.0684C29.3658 59.5892 28.1146 55.0441 27.4362 54.9311C28.0618 54.6758 27.4256 49.9925 26.688 49.9004C27.265 49.4651 26.7324 45.1502 25.9905 45.079C26.3477 44.7714 26.3097 41.8145 27.06 40.3643C27.6602 39.2155 30.1922 38.6086 30.3233 41.3709C28.8058 40.6238 28.698 45.5708 29.3616 46.4015C29.9745 47.2532 34.0664 49.1471 35.3514 50.2143C35.2352 52.3048 37.2536 60.4074 38.7225 62.7156C40.2295 65.0384 41.7174 66.4091 42.5734 68.4912C43.4251 70.6362 43.8225 74.836 44.8729 75.8007C45.8156 76.6504 50.0849 76.8743 50.4358 76.2235ZM51.6151 80.302C48.4152 80.3606 45.6169 78.111 46.158 77.4937C47.276 76.3469 49.1846 78.0461 51.4545 77.071C53.7033 77.9938 55.5632 76.3511 57.0174 77.4414C57.8522 78.0357 54.7918 80.258 51.6151 80.302Z" fill="#4C4C4C" fill-opacity="0.4"/>
<path d="M15.5032 43.1163C15.0383 42.2876 13.079 42.1809 12.3456 42.5869C11.5382 43.0263 10.9232 49.2519 11.758 49.4716C11.031 49.8357 11.9736 54.7178 12.9353 54.7178C12.1702 55.0401 13.711 59.828 14.5944 59.6961C14.0829 60.4076 16.579 64.302 17.2702 64.0927C17.4857 68.0917 29.664 70.0002 29.4146 66.6374C29.2582 64.9905 27.4363 67.3823 19.2506 54.7199C15.6216 49.1431 16.2324 44.3049 15.5032 43.1163Z" fill="#4C4C4C" fill-opacity="0.4"/>
</svg>
