<svg width="102" height="100" viewBox="0 0 102 100" fill="none" xmlns="http://www.w3.org/2000/svg">
<path d="M2.71012 75.0483C4.21377 73.3174 4.28091 72.9545 4.37998 66.023L4.46667 59.9586L5.57783 60.019L6.68898 60.0795L6.74779 65.0658C6.78445 68.1744 6.72309 70.5119 6.58485 71.2732C6.12928 73.7821 4.70133 75.3679 2.38409 75.9383C1.82461 76.076 1.82987 76.0616 2.71012 75.0483ZM38.6436 73.0868C35.8054 72.6009 34.5109 72.0131 33.4473 70.7271C32.0142 68.9942 31.7738 66.2603 32.8539 63.9773C34.0867 61.3714 36.7438 59.9243 40.2676 59.9395C41.9341 59.9467 42.6814 60.0722 43.8055 60.5334C44.4552 60.8 44.5429 60.9181 44.5429 61.5262C44.5429 61.9059 44.4958 62.2165 44.4381 62.2165C44.3804 62.2165 43.8716 61.9719 43.3074 61.6729C41.9291 60.9426 39.4691 60.7692 38.1097 61.3065C36.8682 61.7972 35.5978 63.0522 35.1635 64.2169C34.6386 65.6247 34.6906 67.9416 35.275 69.1866C35.8177 70.3427 36.9792 71.4248 38.0259 71.7493C38.953 72.0368 41.3798 72.0595 42.0721 71.787C42.5734 71.5898 42.5765 71.5743 42.5765 69.2329V66.8772L43.7072 66.9382L44.8379 66.9992V69.642V72.2847L43.6209 72.6246C42.3747 72.9727 39.5236 73.2375 38.6436 73.0868ZM56.6421 73.0013C54.3678 72.5806 53.2594 71.784 52.7113 70.1762C52.4727 69.4762 52.4087 68.3023 52.4087 64.623V59.9574L53.5394 60.0184L54.6701 60.0795L54.7684 64.964C54.8802 70.515 54.9612 70.8496 56.3741 71.5956C57.4902 72.185 60.3512 72.1067 61.1823 71.4641C62.6422 70.3353 62.8028 69.6017 62.8191 63.9844L62.8308 59.9519L63.4699 60.0157L64.109 60.0795V64.8622C64.109 69.3749 64.085 69.691 63.6846 70.4591C63.1084 71.5642 62.3019 72.3165 61.3021 72.6817C60.2298 73.0732 57.896 73.2333 56.6421 73.0013ZM16.7644 66.4395L19.8641 60.0795H20.5401C21.3005 60.0795 21.1336 59.7766 25.3887 68.8818L27.2195 72.7996H25.8434H24.4672L23.6987 71.0697L22.9301 69.3397H19.8717H16.8133L15.9843 71.0697C15.1622 72.7854 15.1492 72.7996 14.41 72.7996H13.6647L16.7644 66.4395ZM21.312 65.6255C20.6621 64.1423 20.0704 62.867 19.9972 62.7914C19.924 62.7158 19.273 63.9293 18.5506 65.488L17.2371 68.3221H19.8654H22.4938L21.312 65.6255ZM69.7134 72.6966C69.7134 72.6399 71.0878 69.7496 72.7677 66.2737L75.822 59.9539L76.5253 60.0167L77.2286 60.0795L80.1494 66.2869C81.7558 69.701 83.0735 72.563 83.0776 72.647C83.0818 72.7309 82.4765 72.7996 81.7325 72.7996H80.3799L79.6815 71.1206L78.9832 69.4415L75.8513 69.3857L72.7195 69.3299L71.9538 71.0629C71.1917 72.7879 71.1848 72.7959 70.4508 72.7978C70.0452 72.7988 69.7134 72.7533 69.7134 72.6966ZM78.3657 68.2138C78.3657 68.1542 77.8173 66.8647 77.1471 65.3483L75.9285 62.5912L75.2484 63.9811C74.8743 64.7456 74.2746 66.035 73.9156 66.8466L73.2629 68.3221H75.8143C77.2176 68.3221 78.3657 68.2734 78.3657 68.2138ZM89.2275 66.4395L89.2794 60.0795L91.2459 60.0184C95.0554 59.9002 97.5368 60.521 98.4682 61.8252C99.5126 63.2877 99.2087 65.5301 97.7967 66.7811C97.3454 67.1809 96.8593 67.508 96.7165 67.508C96.5737 67.508 96.4584 67.5767 96.4602 67.6607C96.462 67.7446 97.2592 68.9393 98.2318 70.3154L100 72.8175L98.5884 72.7577L97.1767 72.6979L95.5955 70.3065L94.0142 67.9151H92.7775H91.5408V70.3574V72.7996H90.3582H89.1755L89.2275 66.4395ZM95.2988 66.5697C97.0333 65.5329 97.1084 62.5359 95.4257 61.5071C94.9904 61.241 94.2886 61.0935 93.1675 61.0326L91.5408 60.9443V64.0488V67.1533L93.0866 67.0607C94.1306 66.9981 94.8487 66.8388 95.2988 66.5697ZM81.217 56.6521C80.7844 56.5054 80.2092 56.255 79.9388 56.0958C79.4769 55.8237 79.5467 55.7995 81.094 55.6951C82.5828 55.5947 82.7856 55.5302 83.2079 55.022C84.0525 54.0058 83.6631 53.0755 82.1019 52.3801C80.9215 51.8543 81.8219 52.0117 83.7773 52.673C86.1048 53.4601 87.779 53.4391 89.771 52.5978C91.2446 51.9755 90.8155 52.4292 89.1811 53.2216C88.388 53.6061 87.6781 53.769 86.5194 53.8322L84.9392 53.9185L85.0148 54.5887C85.0755 55.1271 84.9596 55.4066 84.4251 56.0102C83.8867 56.6182 83.5925 56.7765 82.8818 56.8402C82.3988 56.8835 81.6496 56.7989 81.217 56.6521ZM75.5144 53.3458C73.0578 51.9431 72.4415 51.7978 68.2385 51.6308C64.0002 51.4623 62.9942 51.2085 60.8206 49.7588C59.2951 48.7413 57.256 46.5841 56.3416 45.0202C54.734 42.271 54.0169 41.9838 49.2624 42.1858C45.6148 42.3407 42.2541 42.0489 40.0396 41.3851L38.4484 40.9081L37.4153 41.437C36.5277 41.8915 36.133 41.9646 34.6124 41.9566C33.134 41.9488 32.5675 41.8428 31.1712 41.3128C26.8394 39.6686 26.6254 39.6042 25.704 39.6656C24.8388 39.7233 24.7762 39.7659 24.7159 40.3378C24.6391 41.0671 24.2886 41.5383 24.2886 40.9122C24.2886 40.6796 24.1516 40.3717 23.9842 40.2279C23.5556 39.8598 23.7074 39.1761 24.2886 38.8564C25.0171 38.4556 27.0221 38.6759 29.2047 39.3965C31.7957 40.252 32.8339 40.4695 34.3428 40.4727C35.8789 40.4759 36.7209 40.0983 37.2751 39.1576C37.7441 38.3614 37.7805 36.7484 37.3654 35.1479C37.2058 34.5323 37.0741 34.0112 37.0728 33.9899C37.0715 33.9686 37.8005 34.3498 38.6928 34.8368C39.5851 35.3239 41.023 35.9824 41.8882 36.3001L43.4614 36.8779L42.1441 36.9378C41.4184 36.9708 40.3296 36.8634 39.7198 36.6986C38.6946 36.4215 38.6232 36.4246 38.7539 36.7404C38.8315 36.928 38.9378 37.6122 38.9902 38.261C39.0846 39.43 39.0936 39.4447 39.9953 39.9064C42.8889 41.3882 44.4076 41.6403 50.1615 41.5939L54.5018 41.5589L55.2837 42.0943C55.8941 42.5123 56.2482 43.02 56.8985 44.4097C58.2613 47.3219 60.5836 49.3566 63.2795 50.0005C63.7357 50.1095 65.3921 50.2025 66.9603 50.2072C71.5414 50.2209 73.8312 50.9528 76.1043 53.1302C76.7532 53.7518 77.2399 54.2567 77.1858 54.2523C77.1318 54.2478 76.3796 53.8399 75.5144 53.3458ZM78.6491 50.7043C77.3244 49.8817 76.3532 48.9768 75.7946 48.0447C75.2909 47.2042 74.725 46.9949 72.3477 46.7701C70.3269 46.579 68.6024 46.0091 68.0972 45.3654C67.8811 45.09 67.8978 45.0648 68.2147 45.1879C69.1286 45.543 70.378 45.7496 72.6026 45.9137C75.4584 46.1243 75.976 46.3788 77.0923 48.1205C77.5055 48.7652 78.319 49.7736 78.9 50.3613C79.4811 50.9489 79.9252 51.4298 79.8869 51.4298C79.8487 51.4298 79.2917 51.1033 78.6491 50.7043ZM84.8549 51.0003C83.5164 50.5821 79.4026 48.4235 75.9076 46.3053C69.9059 42.6678 59.9495 37.296 60.1069 37.7803C60.145 37.8974 61.3108 39.2305 62.6977 40.7428C64.0846 42.2551 65.1648 43.4924 65.0982 43.4924C64.8305 43.4924 62.6456 41.698 61.2577 40.3383C59.4549 38.5722 58.3409 37.7696 56.3759 36.8211C55.0232 36.1683 54.6898 36.0912 53.1602 36.0783C51.2162 36.0618 51.311 35.8604 53.4076 35.5527C54.1972 35.4368 54.8728 35.3113 54.909 35.2738C55.0584 35.1191 43.9608 30.9538 40.2168 29.7593C37.7043 28.9576 35.3149 28.3491 35.1895 28.4789C35.1387 28.5315 35.2704 28.9753 35.4822 29.465C35.694 29.9547 35.8322 30.3917 35.7892 30.4362C35.7462 30.4807 35.3059 30.148 34.8108 29.6969C32.9225 27.9767 29.2689 26.4549 25.7381 25.9181C23.7719 25.6192 22.9789 25.7469 21.986 26.5223L21.3548 27.0152L22.7929 28.4867C24.6561 30.3931 25.1435 31.2611 23.6774 30.0616C22.3427 28.9697 21.0503 28.298 19.517 27.8994C18.3059 27.5846 17.4063 27.1373 17.4058 26.8497C17.4057 26.7683 17.8702 26.73 18.4382 26.7646C19.2618 26.8147 19.688 26.7117 20.5437 26.2558C22.4456 25.2423 22.1983 25.1136 18.5611 25.2243C15.9963 25.3023 15.0768 25.4107 14.0411 25.7571C12.6502 26.2223 11.6225 26.9105 11.8214 27.2435C11.8914 27.3607 12.1688 27.2238 12.4731 26.922C13.0322 26.3677 14.085 26.2149 14.6531 26.6056C15.1064 26.9174 13.7749 28.0935 12.4724 28.5318C10.3065 29.2608 9.56049 30.3718 10.7676 31.0707C11.4692 31.4768 11.7832 31.2733 12.7371 29.7938C13.826 28.105 14.5192 27.886 15.5841 28.8947C16.6386 29.8934 16.1678 31.8519 14.5332 33.2661C13.5642 34.1044 13.5039 34.2519 14.0557 34.4332C14.6092 34.615 15.1429 34.2525 15.8191 33.2353C16.2767 32.547 16.5734 32.3147 17.1343 32.2058C18.2132 31.9963 18.9792 31.1063 18.9792 30.0621C18.9792 29.5984 18.8848 29.0363 18.7693 28.813C18.5647 28.4174 18.5753 28.4155 19.1792 28.7387C19.5201 28.9212 20.0667 29.5162 20.3939 30.0609C20.9378 30.9665 21.1017 31.0869 22.3064 31.4656C23.0311 31.6934 24.0169 32.1684 24.4971 32.521C25.5003 33.2578 27.0416 34.7499 27.0416 34.9843C27.0416 35.0715 26.5631 34.826 25.9781 34.4388C21.8351 31.6958 18.8649 31.7333 15.6997 34.5687C14.207 35.9058 13.0588 35.4372 13.1364 33.5225C13.177 32.523 13.1937 32.4958 13.6964 32.61C14.1019 32.7022 14.3048 32.6089 14.6304 32.1804C15.0981 31.5651 15.1525 31.0559 14.8203 30.4027C14.3351 29.4486 13.6104 29.3984 13.1659 30.2881C12.9507 30.7189 12.8901 31.1533 12.9779 31.6375C13.1048 32.3378 13.0967 32.3489 12.5528 32.2142C12.2479 32.1387 11.6444 31.9976 11.2118 31.9008C10.3145 31.6999 9.14703 30.4829 9.14703 29.7485C9.14703 29.4762 9.52151 28.939 10.105 28.3741C10.6318 27.864 11.1202 27.2106 11.1902 26.922C11.615 25.1699 16.6316 23.7685 21.5356 24.0319C25.3444 24.2365 28.1593 24.7318 33.2359 26.0905C41.4062 28.2773 50.8184 32.2276 63.6174 38.8414C68.9298 41.5867 71.7408 43.164 78.2228 47.0374C79.4962 47.7983 81.4429 48.8377 82.549 49.3473C84.3013 50.1547 84.775 50.2854 86.2315 50.3629L87.9029 50.4518L89.6197 49.5113C90.92 48.7989 91.4605 48.6029 91.8477 48.7035C92.5503 48.886 92.8592 49.6333 92.5331 50.3613C92.2847 50.9156 92.2808 50.9166 92.1168 50.4691C91.8418 49.7189 91.1376 49.702 89.5828 50.4083C88.0167 51.1197 86.0324 51.3682 84.8549 51.0003ZM11.7034 27.891C11.7034 27.8526 11.6308 27.8211 11.5422 27.8211C11.2951 27.8211 9.73696 29.2506 9.73696 29.4773C9.73696 29.5872 10.1794 29.2909 10.7202 28.819C11.261 28.3471 11.7034 27.9295 11.7034 27.891ZM13.5831 27.3077C13.9472 27.0121 13.9383 27.0004 13.39 27.0533C13.0739 27.0838 12.779 27.2233 12.7346 27.3632C12.623 27.7149 13.1217 27.6823 13.5831 27.3077ZM21.0948 41.9151C20.034 40.7608 20.2308 39.1334 21.603 37.7133C22.5884 36.6934 23.995 36.2103 26.5149 36.0262L28.1569 35.9063L27.8831 35.0836C27.5827 34.1812 27.796 32.6874 28.3293 31.959C28.5745 31.6242 28.6029 31.6854 28.6085 32.5596C28.6152 33.6016 29.0097 34.7907 29.5563 35.4169C30.0172 35.9449 31.5833 36.7505 33.2359 37.3097C34.867 37.8617 34.6708 37.8907 31.9428 37.5007C28.1932 36.9648 25.9041 36.8927 24.4951 37.2663C22.4587 37.8063 21.339 38.9593 21.339 40.5164C21.339 41.3437 22.0593 42.0658 22.8895 42.0708C23.2937 42.0733 23.3406 42.1161 23.1088 42.2712C22.5313 42.6575 21.6308 42.4982 21.0948 41.9151ZM17.5843 26.1812C17.1692 25.9157 17.392 25.8491 19.0775 25.7349C20.464 25.6411 20.5807 25.6587 20.0608 25.8833C19.2655 26.227 17.9107 26.3899 17.5843 26.1812Z" fill="#7F7F7F"/>
</svg>
