<svg width="127" height="22" viewBox="0 0 127 22" fill="none" xmlns="http://www.w3.org/2000/svg">
<g clip-path="url(#clip0_2208_132)">
<path d="M2.16754 11.2786C1.48156 9.30958 2.19041 4.6076 6.85692 4.17798C7.50656 4.08958 8.24833 4.17752 9.03035 4.45132C9.85106 3.55385 10.8718 1.95829 13.6625 2.86526C13.2728 2.34504 12.842 1.90104 12.3806 1.52896C6.54502 -3.17734 -4.17301 3.62183 1.71036 13.1881C1.72325 12.375 1.87698 11.9659 2.16754 11.2786Z" fill="white"/>
<path d="M9.03029 4.45096C8.24827 4.17716 7.50651 4.08922 6.85687 4.17762C5.1677 5.24579 3.02506 9.24981 2.16748 11.2783C2.37536 11.875 3.42593 14.3214 5.77059 14.6795C5.08309 11.8274 7.1056 7.61505 9.03029 4.45096Z" fill="white"/>
<path d="M6.62857 16.7679C6.23638 16.0833 5.9333 15.3539 5.77073 14.6795C3.42607 14.3215 2.37551 11.8751 2.16762 11.2783C1.87706 11.9656 1.72333 12.3747 1.71045 13.1878C1.53834 24.0479 14.4055 24.3462 16.693 16.9472C16.2927 17.1859 15.3991 17.4246 15.0083 17.4246C12.9145 19.8001 8.58986 20.1918 6.62857 16.7679Z" fill="white"/>
<path d="M5.77075 14.6796C5.93332 15.3539 6.2364 16.0834 6.62859 16.768C10.1894 17.8748 13.1474 17.723 15.0083 17.4246C16.0892 16.1984 16.5756 14.4436 15.8357 12.4121C12.4045 15.0973 9.54513 14.7393 5.77075 14.6796Z" fill="white"/>
<path d="M13.6625 2.86517C17.1509 3.99889 18.695 6.86303 17.2081 10.6222C16.9794 11.0797 16.3846 12.0781 15.8356 12.4123C16.5755 14.4437 16.0891 16.1986 15.0082 17.4248C15.399 17.4248 16.2926 17.1861 16.6929 16.9474C26.3004 11.0998 19.8423 0.274911 12.3806 1.52887C12.842 1.90095 13.2728 2.34495 13.6625 2.86517Z" fill="white"/>
<path d="M9.03027 4.45171C11.4151 5.28672 14.1739 7.85032 15.8355 12.4127C16.3845 12.0786 16.9793 11.0801 17.2081 10.6227C16.6362 8.23593 15.2065 4.71542 13.6624 2.86566C10.8717 1.95868 9.85098 3.55424 9.03027 4.45171Z" fill="white"/>
<path d="M29.1885 16.5003V5.56626H30.8761V14.9757H36.6169V16.5003H29.1885ZM45.3259 14.9757V16.5003H37.9879V5.56626H45.1903V7.09086H39.6754V10.2017H44.4519V11.6339H39.6754V14.9757H45.3259ZM50.1557 5.56626H51.7529L55.9118 16.5003H54.1338L53.0035 13.5281H48.8749L47.7599 16.5003H45.9668L50.1557 5.56626ZM52.672 12.2499L50.9543 7.46046L49.1763 12.2499H52.672ZM57.2345 16.5003V5.56626H61.0316C62.187 5.56626 63.1513 5.81266 63.9246 6.30546C64.6984 6.78797 65.2758 7.44506 65.6574 8.27666C66.0491 9.09797 66.245 10.0117 66.245 11.0179C66.245 12.1267 66.0292 13.0917 65.5971 13.9131C65.1752 14.7344 64.5725 15.3709 63.789 15.8227C63.0055 16.2744 62.0863 16.5003 61.0316 16.5003H57.2345ZM64.5273 11.0179C64.5273 10.2479 64.3868 9.57026 64.1054 8.98506C63.8342 8.38957 63.4376 7.92757 62.915 7.59906C62.4027 7.26026 61.7753 7.09086 61.0316 7.09086H58.9221V14.9757H61.0316C61.785 14.9757 62.4178 14.8011 62.9301 14.4521C63.4526 14.103 63.8492 13.6307 64.1205 13.0353C64.3917 12.4398 64.5273 11.7673 64.5273 11.0179ZM78.0716 8.13806C77.971 8.02514 77.8257 7.90706 77.6347 7.78386C77.4436 7.65037 77.2176 7.52717 76.9566 7.41426C76.6956 7.30134 76.4142 7.20894 76.1128 7.13706C75.8115 7.06517 75.4999 7.02926 75.1786 7.02926C74.4753 7.02926 73.9533 7.16274 73.6116 7.42966C73.2698 7.69657 73.0993 8.06617 73.0993 8.53846C73.0993 8.88754 73.1945 9.16474 73.3855 9.37006C73.5766 9.56514 73.8677 9.72937 74.2595 9.86286C74.6512 9.99634 75.1436 10.1401 75.7361 10.2941C76.4594 10.4686 77.0874 10.6791 77.6196 10.9255C78.1518 11.1616 78.5586 11.4799 78.8401 11.8803C79.1215 12.2807 79.262 12.8094 79.262 13.4665C79.262 14.0209 79.1614 14.4983 78.9606 14.8987C78.7599 15.2991 78.4785 15.6276 78.1168 15.8843C77.7552 16.1307 77.3382 16.3155 76.8662 16.4387C76.3943 16.5516 75.8868 16.6081 75.3444 16.6081C74.8121 16.6081 74.2794 16.5516 73.7472 16.4387C73.2247 16.3257 72.7226 16.1615 72.2404 15.9459C71.7685 15.72 71.3315 15.4479 70.9295 15.1297L71.698 13.6513C71.8287 13.7847 72.0144 13.9336 72.2555 14.0979C72.5068 14.2519 72.7931 14.4007 73.1143 14.5445C73.4458 14.6882 73.8026 14.8114 74.1841 14.9141C74.5759 15.0065 74.9725 15.0527 75.3745 15.0527C76.0477 15.0527 76.56 14.9346 76.9114 14.6985C77.273 14.4521 77.4538 14.103 77.4538 13.6513C77.4538 13.2817 77.3382 12.9891 77.1073 12.7735C76.8764 12.5476 76.5396 12.3577 76.0978 12.2037C75.6559 12.0497 75.1286 11.8957 74.5156 11.7417C73.8123 11.5466 73.2246 11.3361 72.7527 11.1103C72.2808 10.8741 71.924 10.5764 71.6829 10.2171C71.452 9.84746 71.3363 9.38034 71.3363 8.81566C71.3363 8.09697 71.5069 7.49126 71.8486 6.99846C72.1904 6.49537 72.6521 6.12066 73.2349 5.87426C73.8274 5.61757 74.4903 5.48926 75.2238 5.48926C75.706 5.48926 76.1629 5.54574 76.595 5.65866C77.0271 5.76134 77.4286 5.90506 77.8004 6.08986C78.182 6.27466 78.5285 6.48514 78.8401 6.72126L78.0716 8.13806ZM88.8047 7.09086H85.2487V16.5003H83.5461V7.09086H79.975V5.56626H88.8047V7.09086ZM94.6995 16.5773C93.846 16.5773 93.1228 16.4284 92.5297 16.1307C91.9475 15.8329 91.475 15.4274 91.1134 14.9141C90.7619 14.4007 90.5009 13.8155 90.3298 13.1585C90.1695 12.5014 90.0887 11.8187 90.0887 11.1103V5.56626H91.7763V11.1103C91.7763 11.6133 91.8269 12.101 91.927 12.5733C92.0276 13.0353 92.1885 13.4511 92.4092 13.8207C92.6304 14.1903 92.9269 14.4829 93.2982 14.6985C93.6803 14.9141 94.1474 15.0219 94.6995 15.0219C95.2624 15.0219 95.7295 14.9141 96.1008 14.6985C96.4829 14.4726 96.7788 14.1749 96.9898 13.8053C97.211 13.4254 97.3719 13.0045 97.472 12.5425C97.5726 12.0805 97.6226 11.6031 97.6226 11.1103V5.56626H99.3253V11.1103C99.3253 11.8597 99.2349 12.5681 99.0541 13.2355C98.8835 13.8925 98.6123 14.4726 98.2404 14.9757C97.8788 15.4685 97.4068 15.8586 96.824 16.1461C96.2418 16.4335 95.5336 16.5773 94.6995 16.5773ZM101.57 16.5003V5.56626H105.367C106.522 5.56626 107.487 5.81266 108.26 6.30546C109.033 6.78797 109.611 7.44506 109.993 8.27666C110.385 9.09797 110.58 10.0117 110.58 11.0179C110.58 12.1267 110.365 13.0917 109.932 13.9131C109.511 14.7344 108.908 15.3709 108.124 15.8227C107.341 16.2744 106.422 16.5003 105.367 16.5003H101.57ZM108.863 11.0179C108.863 10.2479 108.722 9.57026 108.441 8.98506C108.17 8.38957 107.773 7.92757 107.25 7.59906C106.738 7.26026 106.11 7.09086 105.367 7.09086H103.257V14.9757H105.367C106.12 14.9757 106.753 14.8011 107.265 14.4521C107.788 14.103 108.185 13.6307 108.456 13.0353C108.727 12.4398 108.863 11.7673 108.863 11.0179ZM112.356 16.5003V5.56626H114.043V16.5003H112.356ZM120.906 16.5773C120.132 16.5773 119.434 16.4233 118.812 16.1153C118.189 15.8073 117.652 15.3915 117.199 14.8679C116.747 14.334 116.396 13.7385 116.145 13.0815C115.904 12.4141 115.783 11.7314 115.783 11.0333C115.783 10.3043 115.913 9.61134 116.175 8.95426C116.436 8.28694 116.797 7.69657 117.26 7.18326C117.721 6.65966 118.264 6.24897 118.887 5.95126C119.52 5.64326 120.203 5.48926 120.936 5.48926C121.699 5.48926 122.392 5.64837 123.016 5.96666C123.648 6.28494 124.186 6.71097 124.628 7.24486C125.08 7.77874 125.426 8.37417 125.668 9.03126C125.918 9.68834 126.044 10.3608 126.044 11.0487C126.044 11.7776 125.914 12.4757 125.653 13.1431C125.401 13.8001 125.044 14.3905 124.583 14.9141C124.12 15.4274 123.573 15.8329 122.94 16.1307C122.317 16.4284 121.639 16.5773 120.906 16.5773ZM117.501 11.0333C117.501 11.5466 117.581 12.0445 117.742 12.5271C117.902 13.0096 118.128 13.4408 118.42 13.8207C118.721 14.1903 119.083 14.4829 119.505 14.6985C119.927 14.9141 120.399 15.0219 120.921 15.0219C121.464 15.0219 121.946 14.9089 122.368 14.6831C122.79 14.4572 123.141 14.1543 123.422 13.7745C123.714 13.3843 123.935 12.9531 124.085 12.4809C124.236 11.9983 124.311 11.5158 124.311 11.0333C124.311 10.5199 124.231 10.0271 124.07 9.55486C123.92 9.07234 123.694 8.64626 123.392 8.27666C123.091 7.89677 122.729 7.59906 122.307 7.38346C121.895 7.16786 121.434 7.06006 120.921 7.06006C120.379 7.06006 119.897 7.17297 119.475 7.39886C119.053 7.62474 118.696 7.92757 118.405 8.30746C118.113 8.68734 117.887 9.11337 117.727 9.58566C117.576 10.0579 117.501 10.5405 117.501 11.0333Z" fill="white"/>
</g>
<defs>
<clipPath id="clip0_2208_132">
<rect width="127" height="22" fill="white"/>
</clipPath>
</defs>
</svg>
