<svg width="101" height="100" viewBox="0 0 101 100" fill="none" xmlns="http://www.w3.org/2000/svg">
<g clip-path="url(#clip0_143_5676)">
<path fill-rule="evenodd" clip-rule="evenodd" d="M81.0018 26.5L91.6469 48.1922H58.7587L48.164 26.5H81.0018ZM49.822 51.7512C46.0562 51.7512 42.1399 51.3555 39.7298 49.0397C37.7209 47.2886 36.6161 45.255 35.4614 42.9392C35.2103 42.4798 32.3108 36.5469 30.0738 31.9695L30.0728 31.9672C28.7315 29.2227 27.6284 26.966 27.478 26.6696H-3C-1.90488 28.9204 -0.809761 31.1807 0.286585 33.4435C2.96014 38.9616 5.64124 44.4952 8.34749 49.9434C11.6612 56.7223 14.8244 63.0497 20.5986 67.6816C23.3608 69.9969 26.2725 71.5229 29.6872 72.4833C33.0513 73.3873 36.4657 73.5 39.9299 73.5H67.0443L56.3996 51.7512H49.822ZM60.5171 51.6947L71.1622 73.5H104L93.3045 51.6947H60.5171Z" fill="#7F7F7F"/>
</g>
<defs>
<clipPath id="clip0_143_5676">
<rect width="101" height="100" fill="white"/>
</clipPath>
</defs>
</svg>
