<svg width="130" height="23" viewBox="0 0 130 23" fill="none" xmlns="http://www.w3.org/2000/svg">
<g clip-path="url(#clip0_522_3137)">
<path d="M57.9281 11.4865L58.0128 23H94.0063H130V11.5672V0.134503L93.9216 0.0538012L57.8716 0L57.9281 11.4865ZM129.294 11.5672V22.3276H94.0063H58.7185V11.5672V0.807017H94.0063H129.294V11.5672Z" fill="#B00000"/>
<path d="M105.665 4.54635C103.153 5.16507 101.826 7.29021 102.475 9.57678C102.87 10.8949 103.802 11.7019 106.004 12.6165C107.67 13.316 108.404 13.9078 108.404 14.5534C108.404 15.3066 107.19 15.9253 105.948 15.8177C105.072 15.7639 104.762 15.5487 104.197 14.7417L103.548 13.7733L102.306 14.1768C101.459 14.4458 101.064 14.7417 101.064 15.0376C101.064 15.7639 102.645 17.6738 103.633 18.185C104.931 18.8037 108.375 18.6154 109.448 17.8621C110.803 16.9206 111.509 15.6563 111.509 14.2575C111.509 12.3206 110.69 11.3791 107.896 10.0879C106.512 9.44227 105.524 8.79665 105.411 8.50074C105.185 7.82823 106.202 6.99432 107.246 6.99432C107.98 6.99432 109.081 7.72064 109.307 8.33934C109.363 8.52765 109.843 8.47385 110.747 8.17793C111.932 7.80134 112.074 7.66683 111.904 7.15572C111.622 6.32179 110.916 5.48788 110.041 4.97678C109.109 4.46565 106.907 4.25046 105.665 4.54635Z" fill="#B00000"/>
<path d="M63.9981 10.1418C63.4336 13.2084 62.869 16.3827 62.7843 17.1359L62.5867 18.5616H64.0265H65.4662L65.7766 17.0014C65.946 16.1675 66.1719 15.0377 66.2847 14.5265L66.5107 13.585L69.1642 13.4505C72.2131 13.2891 73.2012 12.8856 74.4997 11.3792C75.2338 10.5184 75.375 10.1418 75.375 8.93123C75.375 7.3172 74.6409 5.75695 73.5965 5.11134C73.1447 4.81544 71.8462 4.68093 69.0232 4.62713L65.0428 4.51953L63.9981 10.1418ZM71.818 7.69379C72.3825 8.20492 72.4108 9.41544 71.8743 10.088C71.5639 10.5184 71.0274 10.626 69.2773 10.7067L67.1035 10.8143L67.301 9.28093C67.3857 8.42011 67.5551 7.61309 67.6398 7.5055C67.9222 7.07509 71.338 7.2365 71.818 7.69379Z" fill="#B00000"/>
<path d="M77.2658 8.82256C76.8423 11.136 76.5035 13.4764 76.5035 14.0144C76.5035 16.8927 78.3667 18.5875 81.5568 18.5875C84.662 18.6144 86.3558 17.7805 87.4568 15.7091C87.9368 14.7945 89.7718 6.267 89.7718 5.00269C89.7718 4.62607 89.5177 4.54537 88.3037 4.62607L86.8076 4.70677L86.0454 9.01086C85.142 14.0144 84.7751 14.929 83.42 15.4939C82.0931 16.005 81.2181 15.9781 80.3428 15.3056C79.4112 14.6062 79.4112 13.9068 80.3146 9.03778C80.7099 6.96642 81.0203 5.11028 81.0203 4.92199C81.0203 4.67988 80.5687 4.57227 79.5524 4.57227H78.0561L77.2658 8.82256Z" fill="#B00000"/>
<path d="M91.2397 11.0822C90.5903 14.6869 90.054 17.8342 90.054 18.0764C90.054 18.5068 90.4775 18.5606 94.712 18.5606H99.37L99.6522 17.8611C99.8216 17.4845 99.9346 16.812 99.9346 16.3816V15.6015H96.688C93.4698 15.6015 93.4416 15.6015 93.5829 14.9828C93.8651 13.7723 95.4177 5.24477 95.4177 4.89507C95.4177 4.67986 94.9379 4.57227 93.9216 4.57227H92.4535L91.2397 11.0822Z" fill="#B00000"/>
<path d="M115.32 5.70404C115.095 7.18359 113.542 15.6573 113.231 17.1368C113.09 17.7555 113.062 18.3473 113.147 18.428C113.401 18.6701 123.056 18.5625 123.197 18.3204C123.31 18.1859 123.451 17.5134 123.535 16.8409L123.733 15.6035H120.148C118.2 15.6035 116.591 15.5497 116.591 15.469C116.591 15.4152 116.732 14.7426 116.901 13.9894L117.212 12.6444H118.99C119.978 12.6444 120.854 12.5637 120.91 12.4292C120.995 12.3216 121.136 11.7298 121.249 11.0842L121.446 9.95434H119.555H117.664L117.861 8.79762C117.974 8.1789 118.115 7.5871 118.2 7.45259C118.256 7.34499 119.809 7.26429 121.644 7.26429H124.975L125.173 6.24206C125.258 5.70404 125.342 5.08534 125.342 4.89703C125.342 4.65492 124.185 4.57422 120.43 4.57422H115.518L115.32 5.70404Z" fill="#B00000"/>
<path d="M47.0877 4.60092C45.5349 4.95062 44.2083 5.86526 43.2483 7.26408C42.1473 8.85122 41.7804 10.1962 41.7804 12.5366C41.7804 16.2758 43.8411 18.5623 47.2571 18.5892C49.4872 18.6161 50.6164 18.1588 52.0561 16.6524C53.6089 15.0114 54.2864 13.1553 54.2864 10.6267C54.3146 6.10736 51.3504 3.6325 47.0877 4.60092ZM50.2213 7.77518C51.181 8.68982 51.5198 10.25 51.1245 11.9986C50.447 15.2536 47.8216 16.8676 45.8174 15.2267C45.1115 14.6617 45.0268 14.3658 44.9421 12.5904C44.8293 10.3307 45.3656 8.85122 46.749 7.82899C47.7369 7.10268 49.4872 7.07578 50.2213 7.77518Z" fill="white"/>
<path d="M7.50924 5.16407C7.31161 5.51377 6.43648 6.99332 5.58958 8.47284C4.71445 9.95237 3.66992 11.7547 3.24646 12.5079C1.15744 16.1395 0 18.2109 0 18.3723C0 18.4799 0.705754 18.5606 1.55266 18.5606H3.10533L3.81107 17.2155L4.51682 15.8705H7.31161H10.1064L10.304 16.7313C10.6992 18.5875 10.6428 18.5606 12.3084 18.5606C13.1553 18.5606 13.8328 18.453 13.8328 18.3454C13.8328 18.2109 13.2117 15.1173 12.4213 11.4319C11.6591 7.74653 11.0098 4.70676 11.0098 4.65297C11.0098 4.59916 10.304 4.57227 9.45712 4.57227C8.15852 4.57227 7.848 4.67986 7.50924 5.16407ZM9.11836 10.1407C9.20305 10.8401 9.37243 11.8354 9.48534 12.2927L9.68295 13.1804H7.93269C7.00109 13.1804 6.21063 13.0997 6.21063 13.019C6.21063 12.6424 8.61021 8.66114 8.77959 8.74184C8.86429 8.82254 9.03367 9.44126 9.11836 10.1407Z" fill="white"/>
<path d="M16.9383 9.14761C15.922 14.2318 15.9503 15.4154 17.1077 16.8681C18.1522 18.1593 19.3096 18.6435 21.4551 18.6435C24.3629 18.6435 26.0849 17.7558 27.1577 15.7382C27.5812 14.9581 29.6419 5.73122 29.6419 4.6552C29.6419 4.60139 28.9644 4.5745 28.1175 4.5745C26.3671 4.5745 26.6777 3.92889 25.5486 10.0084C24.8427 13.909 24.6733 14.3663 23.7701 15.1464C23.1489 15.6844 21.3422 15.9266 20.3824 15.5768C19.1967 15.1464 19.112 14.2587 19.9025 9.84701C20.3259 7.61427 20.7212 5.51603 20.8059 5.16631C20.947 4.60139 20.8623 4.5745 19.3943 4.5745H17.8417L16.9383 9.14761Z" fill="white"/>
<path d="M31.2225 5.40618C30.799 7.45061 30.8555 7.53132 32.8881 7.53132C34.1585 7.53132 34.7229 7.63893 34.7229 7.85412C34.7229 8.20384 33.1704 16.7313 32.8881 17.9418C32.7469 18.5337 32.8316 18.5606 34.2713 18.5606C35.5135 18.5606 35.8523 18.453 35.937 18.0764C36.0217 17.8342 36.5014 15.3594 37.0096 12.5617L37.9412 7.53132H39.8327C40.8772 7.53132 41.8088 7.42372 41.8935 7.28921C42.0063 7.15472 42.1476 6.48219 42.2322 5.80969L42.4298 4.57227H36.9249H31.42L31.2225 5.40618Z" fill="white"/>
</g>
<defs>
<clipPath id="clip0_522_3137">
<rect width="130" height="23" fill="white"/>
</clipPath>
</defs>
</svg>
