<svg width="101" height="100" viewBox="0 0 101 100" fill="none" xmlns="http://www.w3.org/2000/svg">
<path fill-rule="evenodd" clip-rule="evenodd" d="M95.6875 50C95.6875 25.9375 75.8031 6.25 51.5 6.25C27.1969 6.25 7.3125 25.9375 7.3125 50C7.3125 74.0625 27.1969 93.75 51.5 93.75C75.8031 93.75 95.6875 74.0625 95.6875 50ZM51.5 86.6406C61.3043 86.6406 70.6941 82.8125 77.5984 75.9766C79.8352 73.7616 81.7378 71.3259 83.2929 68.7222L51.3621 55.7422L19.6279 68.6422C21.1819 71.2462 23.0694 73.6672 25.2637 75.8397C32.3061 82.8125 41.6961 86.6406 51.5 86.6406ZM18.7427 67.0716C15.9751 61.8628 14.493 56.01 14.493 50C14.493 40.2928 18.3594 30.9961 25.4018 24.2968C31.9713 17.7923 40.7912 14.0111 50.0772 13.6597L45.8386 46.4453L18.7427 67.0716ZM51.9356 13.6352C61.5779 13.7429 70.6603 17.4275 77.5984 24.2968C84.5027 31.1328 88.3691 40.4297 88.3691 50.1366C88.3691 56.1294 86.9478 61.9137 84.2035 67.1037C79.5505 63.4481 57.714 46.3088 57.714 46.3088L51.9356 13.6352Z" fill="#7F7F7F"/>
</svg>
