<svg width="101" height="100" viewBox="0 0 101 100" fill="none" xmlns="http://www.w3.org/2000/svg">
<g clip-path="url(#clip0_143_5640)">
<path d="M56.1002 73.8655C56.686 73.422 57.9955 72.9784 58.7191 72.6714C58.6847 71.5796 58.2367 70.556 58.5124 69.6349C58.9948 67.9972 60.132 67.2807 61.2347 67.1442C61.3036 67.1784 61.3725 67.3148 61.3036 67.3489C60.6833 67.929 60.4421 68.7478 60.3387 69.6349C60.3043 69.976 60.2354 71.0337 60.5455 71.7843C61.2002 71.4431 62.7853 70.8972 63.3022 70.7949C63.3711 69.7031 63.5434 68.6454 63.8536 67.8607C64.4738 66.3254 65.8522 65.0972 67.2306 65.8136C67.2995 65.8478 67.3684 65.9842 67.2995 66.0183C66.438 66.3254 65.8867 67.2125 65.4042 68.236C65.2664 68.5431 64.784 70.1807 65.3353 70.5219C65.3353 70.5219 65.3698 70.5219 65.3698 70.556C66.3691 70.3513 66.5414 70.4537 67.6096 70.3513C67.7819 69.2937 68.2643 68.3725 68.6779 67.6901C69.2981 66.496 70.9177 65.5407 72.365 66.3936C72.4339 66.4278 72.5028 66.5983 72.3995 66.5983C71.4001 66.8031 70.7454 67.4513 70.4008 68.0313C70.2285 68.3043 69.2981 69.5666 69.7806 70.0784C69.815 70.0784 69.8839 70.0784 69.9529 70.0784C70.8143 70.0443 71.4346 70.2149 72.3305 70.3855C72.6062 69.7372 72.8474 69.669 73.1231 69.3278C74.1224 68.1337 75.8109 67.7242 76.3967 68.8501C76.4656 68.9184 76.4656 69.0548 76.3967 69.0548C75.8798 69.1231 75.0184 69.396 74.6049 69.9078C74.5015 70.0102 74.2258 70.3172 73.9501 70.8972C75.1217 71.7843 75.7765 72.5008 76.0866 73.6949C76.1555 73.8996 76.2589 75.1279 75.8454 74.5137C73.9501 72.1596 71.4001 71.6478 67.5752 72.0231C63.4745 72.3984 61.5793 73.0125 57.4786 75.1961C59.7529 77.2091 56.3415 79.1879 55.7901 76.2196C53.7915 79.222 51.6895 75.4349 54.3773 74.889C51.6205 72.2278 55.3766 70.9996 56.1002 73.8655Z" fill="#7F7F7F"/>
<path d="M63.0955 60.9009C64.5772 60.4233 66.1968 59.9115 67.0238 59.7409C67.1617 57.3526 69.436 54.3844 72.1238 55.4079C72.2272 55.442 72.2961 55.5785 72.1927 55.6126C71.5035 55.8173 69.2981 57.8985 70.0562 59.2291C70.6076 59.2633 72.1238 59.2291 72.5718 59.2633C73.1576 56.6362 75.4663 54.7938 78.0852 55.9879C78.1886 56.022 78.2575 56.1926 78.1542 56.1926C77.1204 56.3632 74.7771 58.0009 75.0528 59.3997C75.5353 59.4338 76.8447 59.8774 77.6717 60.3209C77.9819 59.6727 78.3265 59.4338 78.6366 59.0927C79.7737 57.8985 82.117 57.7962 82.8061 58.9562C82.8751 59.0244 82.8751 59.1609 82.8061 59.1609C81.8068 59.1268 80.9109 59.2633 80.0494 60.0138C79.9116 60.1162 79.6359 60.5256 79.3258 61.1056C80.1528 61.5492 81.0832 62.4021 81.2555 63.2209C81.3933 63.6304 81.4622 63.9715 81.3933 64.381C81.3589 64.4833 81.1521 64.381 81.0832 64.3127C78.9123 61.9586 74.1224 60.4915 69.4704 61.0715C66.3691 61.4468 63.3367 62.2998 60.8212 63.3915C61.6826 62.6409 62.4407 61.8221 63.0955 60.9009ZM56.2725 66.2233C56.0658 66.428 55.859 66.5986 55.6867 66.8033C56.7894 68.3045 55.032 69.4987 54.5151 67.9975C53.2057 69.3963 52.1719 67.7586 53.0334 67.0763C54.1361 66.9057 55.2388 66.6328 56.2725 66.2233Z" fill="#7F7F7F"/>
<path d="M55.5145 86.3528C55.8246 86.0116 56.5827 85.3634 56.9617 85.0563C55.7901 83.248 56.4449 80.928 57.582 80.7574C57.6509 80.7915 57.6854 80.8939 57.6509 80.9621C57.3408 81.4057 57.203 83.7939 58.0989 84.3057C58.5469 83.9986 59.4083 83.3845 59.7874 83.2822C59.1327 81.0986 60.2698 78.1644 62.4752 78.6421C62.5441 78.6762 62.5786 78.8127 62.5441 78.8468C60.7523 79.768 60.7178 82.4974 61.2002 82.8045C61.9239 82.5998 62.7164 82.2927 63.509 82.2245C63.8536 79.3245 66.438 78.028 67.7475 78.7786C67.8164 78.8127 67.8509 78.9833 67.8164 78.9833C67.0928 78.5739 64.3705 81.3374 65.2664 82.1563C65.8867 82.1221 66.6103 82.3951 67.334 82.5657C67.6441 80.9621 69.9184 79.6315 70.8833 80.6551C70.9522 80.7233 70.9522 80.8598 70.9177 80.8598C70.0562 81.0304 68.9191 81.8151 68.7468 83.3163C70.5731 84.1692 70.3664 85.9434 70.0562 85.4657C68.3333 83.2139 64.6806 83.5892 61.8894 84.1692C60.2698 84.5104 57.9955 86.0457 57.0307 87.1375C59.9597 88.5022 57.3063 91.0611 56.0658 88.161C54.0327 91.7093 52.0341 88.4681 54.4118 87.5128C51.5172 85.2951 54.5151 83.7939 55.5145 86.3528Z" fill="#7F7F7F"/>
<path d="M26.0173 83.6573C23.1228 80.3478 20.6762 76.7654 18.712 73.1489H50.4145V83.6573H26.0173Z" fill="#7F7F7F"/>
<path d="M65.6799 32.3096H88.9744V41.3509H65.6799V32.3096Z" fill="#7F7F7F"/>
<path d="M88.9744 18.5945L82.0825 16.1721L74.0535 14.5686L65.0252 12.6238L56.6516 11.9756H50.2766V21.4945H88.9399L88.9744 18.5945Z" fill="#7F7F7F"/>
<path d="M17.2302 7.91556C18.1606 7.6085 19.091 7.33555 20.0559 7.06261C20.4005 6.96025 20.7451 6.8579 21.1241 6.78966C21.5032 6.72143 21.8822 6.68731 22.2613 6.78966L22.3991 6.8579C22.537 6.92614 22.6059 7.02849 22.6748 7.16496C22.7782 7.40379 22.8126 7.64261 22.8471 7.91556C22.916 8.46145 22.916 9.00734 22.8471 9.55322C22.8126 9.99676 22.7437 10.4403 22.5714 10.8156C22.5025 10.9862 22.3991 11.1227 22.2613 11.2591C22.1579 11.3615 22.0545 11.4638 21.9512 11.5321C21.7099 11.7027 21.5032 11.8391 21.2275 11.9415C20.6073 12.2144 19.987 12.4191 19.3323 12.6238C18.2296 12.9991 17.1269 13.3744 16.0242 13.7497V15.7627C15.4728 15.9674 14.9215 16.2062 14.3701 16.411V8.83675C15.335 8.52968 16.2654 8.22262 17.2302 7.91556ZM16.0242 12.385C17.1269 12.0097 18.2296 11.6344 19.3667 11.2591C19.7113 11.1568 20.0559 11.0544 20.366 10.9179L20.6073 10.7815L20.7106 10.7132L20.814 10.6109L20.9174 10.5085L20.9863 10.4062L21.0897 10.2015C21.1241 10.065 21.1586 9.96264 21.1586 9.82617C21.1931 9.48499 21.1931 9.17793 21.0897 8.83675L21.0208 8.66616L20.9518 8.52968L20.8485 8.42733L20.7106 8.35909L20.5728 8.32498H20.435H20.2971C19.9525 8.35909 19.6424 8.46145 19.2978 8.5638C18.1951 8.90498 17.0924 9.28028 15.9897 9.62146L16.0242 12.385ZM30.0491 4.46964C30.8072 4.33316 31.5308 4.19669 32.2889 4.12846C32.5301 4.09434 32.7714 4.09434 33.0126 4.09434C33.116 4.09434 33.2538 4.12846 33.3572 4.16257C33.4605 4.19669 33.5295 4.23081 33.6328 4.29905C33.7018 4.36728 33.7707 4.4014 33.8396 4.46964C33.9085 4.53787 33.943 4.64023 33.9774 4.70846C34.0464 4.84493 34.0808 4.94729 34.0808 5.08376C34.1497 5.5273 34.1842 6.00495 34.2186 6.4826C34.2531 7.02849 34.2531 7.54026 34.2186 8.05203C34.2186 8.25674 34.2186 8.49557 34.1842 8.70027C34.1497 9.10969 34.1497 9.51911 34.0464 9.92852C34.0119 10.0309 33.9774 10.1332 33.943 10.2015C33.8741 10.3379 33.8051 10.4744 33.7018 10.6109L33.495 10.9179L33.1849 11.1227C33.047 11.1909 32.9437 11.225 32.8058 11.2932C32.2545 11.4638 31.7031 11.5662 31.1518 11.7027C30.0146 11.9415 28.8775 12.1462 27.7403 12.385C27.189 12.4874 26.6376 12.5897 26.0863 12.658C25.9484 12.6921 25.7761 12.6921 25.6383 12.6921L25.2937 12.658C25.1903 12.6238 25.1214 12.5897 25.0525 12.5556L24.8802 12.4191L24.7424 12.2144L24.5356 11.0885V8.05203C24.5701 7.71085 24.6045 7.33555 24.6734 6.99437L24.7768 6.68731C24.8457 6.51672 24.9147 6.38025 25.018 6.24377L25.2592 5.97083L25.466 5.80024C25.6728 5.66377 25.914 5.5273 26.1896 5.42494L27.4302 5.04964C28.2227 4.81082 29.1187 4.64023 30.0491 4.46964ZM29.1876 6.00495L27.3957 6.41436C27.2579 6.44848 27.12 6.51672 26.9822 6.55084L26.8444 6.65319L26.7065 6.75554L26.6032 6.8579L26.4998 6.96025L26.3964 7.06261L26.3275 7.19908C26.2586 7.30143 26.2241 7.43791 26.1896 7.54026C26.0863 7.9838 26.0863 8.42733 26.0863 8.87086C26.0863 9.34852 26.0863 9.82617 26.1552 10.2697L26.2241 10.4403L26.3275 10.6109L26.4653 10.7474L26.6032 10.8497L26.7755 10.9179L26.9478 10.9521H27.1545C27.2923 10.9521 27.3957 10.9521 27.4991 10.9179C28.1883 10.8156 28.8775 10.6791 29.5667 10.5426C30.118 10.4403 30.7038 10.3038 31.2552 10.1673C31.3585 10.1332 31.4964 10.0991 31.5997 10.065L31.772 9.96264L31.9443 9.86029L32.0822 9.72381L32.22 9.58734L32.3234 9.41675L32.3923 9.24616L32.4612 9.07557C32.5646 8.5638 32.5301 8.08615 32.5301 7.57438C32.5301 7.30143 32.5301 7.02849 32.4957 6.78966L32.4612 6.58495C32.4268 6.44848 32.3923 6.31201 32.3234 6.17554L32.2545 6.03907L32.1856 5.93671L32.0822 5.83436L32.0133 5.80024L31.8754 5.732L31.7376 5.69789L31.4619 5.66377C31.1518 5.66377 30.8761 5.69789 30.6004 5.732C30.118 5.83436 29.6356 5.93671 29.1876 6.00495ZM40.5591 3.20727C41.4206 3.13903 42.2821 3.0708 43.1436 3.0708C43.3159 3.0708 43.5226 3.0708 43.6949 3.0708C43.9017 3.0708 44.074 3.10491 44.2463 3.20727C44.3152 3.24139 44.3841 3.2755 44.4186 3.30962C44.5564 3.41198 44.6598 3.51433 44.7287 3.68492C44.7976 3.78728 44.8321 3.92375 44.8665 4.0261C44.9355 4.29905 44.9355 4.60611 44.9355 4.87905C44.9355 5.25435 44.9355 5.59553 44.901 5.97083C44.901 6.1073 44.8665 6.24377 44.8321 6.38025L44.7632 6.51672C44.6943 6.61907 44.6598 6.68731 44.5909 6.78966L44.4186 6.92614C44.3497 6.96025 44.2807 7.02849 44.1774 7.06261C44.074 7.09673 43.9361 7.13084 43.8328 7.16496L42.9024 7.36967L43.8328 7.88144C43.9706 7.9838 44.074 8.05203 44.1774 8.15439L44.2807 8.29086C44.4186 8.49556 44.522 8.70027 44.6253 8.9391C44.7632 9.34852 44.8321 9.75793 44.8321 10.1673C44.2807 10.2015 43.7294 10.2015 43.178 10.2356C43.1436 9.92852 43.1091 9.65558 43.0058 9.34852L42.8679 9.00734L42.799 8.83675L42.6956 8.70027L42.5922 8.5638L42.4544 8.46145L42.2821 8.35909C42.1787 8.32498 42.0754 8.29086 41.972 8.29086C41.7652 8.25674 41.524 8.29086 41.3172 8.29086C40.249 8.35909 39.2152 8.46145 38.147 8.5638L37.7335 8.59792V10.6109C37.1821 10.6791 36.6308 10.7474 36.0794 10.7815V3.61668C37.5957 3.44609 39.0774 3.30962 40.5591 3.20727ZM37.7679 7.36967C38.8706 7.26732 39.9733 7.16496 41.076 7.09673C41.4551 7.06261 41.8341 7.02849 42.2132 6.99437C42.3166 6.99437 42.4199 6.96025 42.5233 6.92614L42.6612 6.89202L42.799 6.82378L42.9024 6.75554L43.0058 6.65319L43.0747 6.55084L43.1436 6.44848C43.178 6.34613 43.2125 6.27789 43.2125 6.17554C43.247 5.86848 43.247 5.56141 43.247 5.25435C43.247 5.152 43.2125 5.04964 43.178 4.91317L43.1091 4.81082L43.0402 4.70846L42.9368 4.60611L42.8335 4.53787L42.7301 4.46964L42.5922 4.43552C42.4889 4.4014 42.3855 4.4014 42.2821 4.4014C41.7308 4.4014 41.1794 4.46964 40.6625 4.50375C39.6977 4.57199 38.7673 4.67434 37.8024 4.74258L37.7679 7.36967ZM49.4841 9.04145C50.1043 9.04145 50.7246 9.04145 51.3793 9.04145C51.7929 9.04145 52.2408 9.04145 52.6888 9.00734C52.7922 9.00734 52.8611 8.97322 52.9645 8.97322C53.0678 8.9391 53.1368 8.90498 53.2057 8.87086L53.3091 8.80263L53.378 8.70027L53.4469 8.59792L53.4814 8.49557L53.5158 8.25674V7.91556L53.4469 7.54026L53.4124 7.43791L53.378 7.33555L53.3091 7.2332L53.2057 7.16496L53.1023 7.09673L52.8611 7.02849L52.4476 6.96025H51.9307H48.4503C48.1057 6.96025 47.7611 6.96025 47.451 6.89202C47.3476 6.8579 47.2787 6.8579 47.2098 6.82378L47.1064 6.75554L47.003 6.68731L46.9341 6.61907L46.8652 6.51672L46.7963 6.41436C46.7273 6.27789 46.6584 6.14142 46.624 6.00495C46.555 5.62965 46.555 5.22023 46.555 4.84493C46.555 4.36728 46.5895 3.88963 46.7963 3.44609C46.8307 3.37786 46.8996 3.30962 46.9341 3.24139C47.1753 3.03668 47.4855 2.93432 47.7956 2.86609C48.1057 2.79785 48.4503 2.79785 48.7604 2.79785C49.5185 2.79785 50.2766 2.79785 51.0347 2.79785C52.2753 2.79785 53.5503 2.83197 54.7908 2.86609V3.95787C53.1368 3.92375 51.4827 3.88963 49.8287 3.88963C49.4496 3.88963 49.0706 3.88963 48.6915 3.92375C48.6226 3.92375 48.5192 3.95787 48.4503 3.95787L48.3125 4.0261L48.2091 4.12846L48.1402 4.26493L48.1057 4.4014L48.0713 4.64023C48.0713 4.84493 48.0713 5.01552 48.0713 5.22023L48.1057 5.35671L48.1402 5.49318L48.2436 5.62965L48.4159 5.732L48.5881 5.76612C50.3111 5.80024 52.0685 5.83436 53.7915 5.90259L53.9982 5.93671C54.2739 6.00495 54.5496 6.1073 54.7563 6.31201C54.8597 6.41436 54.9286 6.51672 54.9631 6.61907C55.1354 6.99437 55.1699 7.43791 55.1699 7.84732C55.1699 8.32498 55.1699 8.80263 55.032 9.24616C54.9976 9.3144 54.9976 9.38263 54.9631 9.45087L54.8597 9.58734C54.7908 9.6897 54.7219 9.75793 54.6185 9.82617C54.4462 9.92852 54.2739 10.0309 54.1016 10.065C53.826 10.1332 53.5158 10.1332 53.2401 10.1673C52.3787 10.2015 51.5516 10.2015 50.6902 10.2015C49.3462 10.2015 48.0023 10.2356 46.6929 10.2356C46.6929 9.86029 46.6929 9.45087 46.6929 9.07557C47.5888 9.04145 48.4848 9.04145 49.3807 9.04145H49.4841ZM60.8901 10.5426C60.2009 10.4744 59.4773 10.4403 58.7881 10.3379C58.4779 10.3038 58.1678 10.2356 57.8921 10.1332C57.7543 10.065 57.6165 10.0309 57.4786 9.92852C57.3752 9.86029 57.3063 9.79205 57.203 9.72381C57.134 9.65558 57.0651 9.55322 56.9962 9.48499C56.9273 9.38263 56.8928 9.28028 56.8584 9.17793C56.755 8.80263 56.7205 8.39321 56.7205 7.98379C56.6861 6.99437 56.6861 6.03907 56.7205 5.04964V4.81082C56.755 4.36728 56.7894 3.92375 57.0651 3.54845C57.1685 3.44609 57.2374 3.34374 57.3752 3.2755C57.7198 3.10491 58.1333 3.03668 58.5124 3.00256C58.9259 2.96844 59.305 2.96844 59.7185 3.00256C60.511 3.03668 61.3381 3.0708 62.1306 3.13903C63.3022 3.24139 64.4394 3.34374 65.611 3.48021V4.7767C64.0603 4.64023 62.5441 4.50375 60.9935 4.4014C60.511 4.36728 59.9941 4.33316 59.4773 4.36728L59.236 4.4014L59.0637 4.43552L58.9259 4.50375L58.7881 4.60611L58.6502 4.74258L58.5469 4.87905L58.4779 5.04964C58.4435 5.152 58.409 5.25435 58.409 5.35671C58.3401 5.83436 58.3056 6.34613 58.3401 6.8579C58.3401 7.26732 58.3401 7.67673 58.409 8.08615C58.4435 8.1885 58.4435 8.29086 58.4779 8.39321L58.5469 8.5638L58.6502 8.70027L58.7881 8.83675L58.9259 8.9391L59.0637 9.00734L59.236 9.07557C59.3739 9.10969 59.5117 9.14381 59.6496 9.14381C60.0975 9.21204 60.58 9.24616 61.0279 9.28028C62.5786 9.41675 64.1637 9.55322 65.7144 9.72381C65.7144 10.1332 65.7144 10.5085 65.7144 10.9179V11.0544C64.7495 10.9521 63.7502 10.8497 62.7853 10.7815C62.1995 10.645 61.5448 10.6109 60.8901 10.5426ZM71.4346 7.30143C72.7096 7.54026 73.9846 7.77909 75.2596 8.01791V5.11788C75.8454 5.25435 76.4312 5.39082 77.0515 5.49318V12.965C76.4657 12.8286 75.8799 12.6921 75.2596 12.5556V9.62146C74.2258 9.41675 73.2265 9.21204 72.1927 9.00734C71.2623 8.83675 70.2975 8.66616 69.3671 8.49557V11.3956C68.7812 11.2932 68.1954 11.225 67.5752 11.1227V3.85551C68.161 3.92375 68.7812 3.99198 69.3671 4.09434V6.96025C70.0562 7.06261 70.7454 7.16496 71.4346 7.30143ZM84.9771 7.77909C85.5974 7.98379 86.2176 8.1885 86.8723 8.39321V9.62146C85.046 9.00734 83.1852 8.42733 81.3244 7.84732L80.7041 7.67673V9.55322C82.0481 9.96264 83.4264 10.3721 84.7703 10.8156C85.3561 11.0203 85.9764 11.1909 86.5622 11.3956V12.4874C84.8392 11.9074 83.0818 11.3615 81.3244 10.8497L80.7041 10.6791V12.658C82.0136 13.0333 83.323 13.4427 84.598 13.8521C85.3561 14.0909 86.1142 14.3639 86.9068 14.6027V15.8651C84.4257 15.0462 81.9102 14.2956 79.3602 13.5792L79.0846 13.5109V6.00495C81.0487 6.55084 83.0129 7.16496 84.9771 7.77909Z" fill="#7F7F7F"/>
<path d="M14.2668 62.6748C13.1641 59.0242 12.5783 55.6124 12.5438 52.6782H35.6315C35.7004 56.5336 37.32 60.0818 39.87 62.6748H14.2668Z" fill="#7F7F7F"/>
<path d="M11.51 7.57421L11.958 7.40362C24.8457 2.69533 37.699 0.238832 50.5868 5.25545e-06C63.4745 -0.204703 76.3278 1.80826 89.2156 6.10714L89.698 6.27773V6.75538C89.5946 22.0744 89.4912 37.3934 89.3879 52.7124C89.3534 60.6278 85.1494 71.7503 77.2238 81.4739C70.8488 89.321 62.0272 96.2811 51.0003 99.9659H50.6212C39.4909 97.1341 30.7038 90.4469 24.2944 82.6339C16.0931 72.5691 11.8891 60.5595 11.8546 52.4053C11.7857 45.0017 11.7512 37.5981 11.6823 30.2286L11.51 7.57421ZM26.5342 83.248H49.9665V73.9338H19.9181C19.8147 73.7632 19.7113 73.5926 19.6424 73.422C21.262 76.2879 23.1572 79.1198 25.3282 81.8151C25.7417 82.2927 26.1207 82.7704 26.5342 83.248ZM50.001 84.408H27.6025C33.3916 90.6858 40.8693 95.9058 50.001 98.4306V84.408ZM27.12 83.8963C27.0856 83.8622 27.0856 83.8622 27.0856 83.828C27.0856 83.8622 27.12 83.8963 27.12 83.8963ZM19.2633 72.7397H50.001V67.2467C50.2422 67.2467 50.4834 67.2467 50.7246 67.2467C50.8969 67.2467 51.0347 67.2467 51.207 67.2467V98.4647C51.1726 98.4647 51.1381 98.4988 51.1381 98.4988C61.6137 94.8823 70.0218 88.1951 76.1555 80.6551C83.771 71.3067 87.8372 60.6619 88.0095 53.0194C88.0095 53.0536 88.0095 53.0536 88.0095 53.0877H65.8522C65.8522 52.8489 65.8867 52.61 65.8867 52.3712V51.8936H88.044C88.0784 48.6182 88.0784 45.3429 88.1129 42.1017H65.8867V40.9417H88.1129C88.1473 38.2805 88.1473 35.6534 88.1818 33.0263H65.8867V31.8663H65.7144V31.8321H88.1818C88.2163 28.625 88.2163 25.4521 88.2507 22.245H50.8624V31.8663H49.6564V12.5213C37.3889 12.726 25.0869 15.1484 12.7505 19.8908L12.7161 18.6626C25.3971 13.8178 38.0781 11.4296 50.7246 11.3272C63.2678 11.2248 75.7765 13.3743 88.2507 17.639C88.2507 18.0485 88.2507 18.4579 88.2507 18.8673C88.2852 14.9778 88.3196 11.0884 88.3196 7.23303C75.742 3.10475 63.1644 1.16002 50.6212 1.36473C37.8713 1.56944 25.1559 3.99182 12.4404 8.66599L13.0607 30.2286C13.1296 37.4616 13.1641 44.6946 13.233 51.9618C13.233 51.9618 13.233 51.9618 13.233 51.9277H35.6659V52.4053C35.6659 52.6441 35.6659 52.883 35.7004 53.1218H13.1985C13.2674 55.8512 13.8532 59.0242 14.8526 62.3678C14.8526 62.3337 14.8181 62.2996 14.8181 62.2654H39.422C39.6287 62.5043 39.8355 62.7431 40.0767 62.9478L40.8348 63.4596H15.1971C16.1965 66.462 17.5404 69.6008 19.2633 72.7397ZM15.1282 63.2207C15.0938 63.1525 15.0938 63.0843 15.0593 63.0502C15.0938 63.1184 15.1282 63.1525 15.1282 63.2207ZM14.9904 62.7772C14.9559 62.709 14.9559 62.6407 14.9215 62.5725C14.9559 62.6407 14.9904 62.709 14.9904 62.7772ZM87.975 52.4053V52.4394C87.975 52.4394 87.975 52.4394 87.975 52.4053ZM87.975 52.61V52.6441C87.975 52.6441 87.975 52.6441 87.975 52.61ZM87.975 52.61C87.975 52.5759 87.975 52.5759 87.975 52.5759V52.61ZM87.975 52.5077C87.975 52.4736 87.975 52.4736 87.975 52.4736V52.5077ZM87.975 51.9959C87.975 51.9618 87.975 51.9618 87.975 51.9618V51.9959ZM50.8624 21.085H88.2163C88.2163 21.2897 88.2163 21.4603 88.2163 21.665C88.2163 20.7438 88.2163 19.8226 88.2163 18.9014C75.7765 14.6025 63.3367 12.4531 50.8624 12.5213V21.085ZM50.7935 98.6012C50.7591 98.6012 50.7591 98.6012 50.7246 98.6353C50.7591 98.6353 50.7591 98.6353 50.7935 98.6012ZM50.3111 98.5329C50.2077 98.4988 50.1388 98.4988 50.0354 98.4647C50.1388 98.4647 50.2422 98.4988 50.3111 98.5329Z" fill="#7F7F7F"/>
<path d="M18.0917 26.4413C18.7465 26.0319 19.4356 25.6224 20.1248 25.2813C20.0214 24.2236 19.9181 22.5859 20.1937 21.6989C20.7106 20.0612 22.2268 18.7306 24.0187 19.0377C24.1221 19.0718 24.191 19.1741 24.1221 19.2082C23.1228 19.72 22.3302 20.5047 21.8822 21.5965C21.7444 21.9036 21.262 24.0871 21.9856 24.2577C22.0545 24.2918 22.1235 24.2918 22.2268 24.2918C23.5363 23.7459 24.8802 23.2683 26.2586 22.8589C26.2586 21.8012 26.293 20.3341 26.6721 19.5494C27.3613 18.0141 29.0842 16.8882 30.945 17.4341C31.0484 17.4682 31.1173 17.6047 31.0484 17.6388C29.9457 18.0141 29.0498 18.6624 28.464 19.6859C28.2917 19.993 27.568 22.0742 28.3261 22.3471H28.3606C29.6356 22.0742 30.945 21.8353 32.3579 21.6647C32.5301 20.6071 32.8058 19.2424 33.2882 18.5259C34.322 17.0247 36.3896 16.0011 38.3193 16.7176C38.4227 16.7517 38.4916 16.8882 38.3882 16.9223C37.1132 17.2294 36.0105 17.8094 35.218 18.7988C35.0112 19.0718 33.943 20.9824 34.5632 21.4259C34.6322 21.4259 34.7011 21.4259 34.77 21.3918C35.8727 21.2894 37.1477 21.2553 38.3538 21.3236C38.6639 20.6753 38.974 20.0953 39.3186 19.72C40.5247 18.4918 43.178 18.0482 43.9706 19.1059C44.0395 19.1741 44.074 19.3106 43.9706 19.3106C42.8335 19.3447 41.6618 19.5153 40.8004 20.3C40.6625 20.4365 40.1801 20.9141 39.9044 21.46C41.7308 21.7671 43.2814 22.3812 43.7639 23.5412C43.9362 23.9165 44.0395 24.2577 43.9706 24.6671C43.9706 24.7695 43.7294 24.7013 43.6605 24.5989C41.3517 22.4836 37.6646 22.2448 32.7369 23.0977C27.7403 23.9507 23.5707 25.4177 19.091 27.533C20.8829 29.546 18.0573 31.0813 17.1269 28.966C14.9559 31.5249 12.9573 27.806 15.9208 27.3625C14.2323 24.7695 17.6438 24.6671 18.0917 26.4413Z" fill="#7F7F7F"/>
<path d="M18.712 46.844C19.2978 46.4005 20.0559 46.0252 20.6762 45.6499C20.0559 44.6604 19.6769 43.2275 19.9181 42.3063C20.3316 40.6686 21.3654 39.8839 22.6403 39.9521C22.7437 39.9521 22.8126 40.0886 22.7437 40.1227C21.8478 40.7027 21.7099 41.4533 21.4343 42.5792C21.2964 43.1934 21.641 44.2169 22.089 44.5922C23.2262 43.9781 23.1917 44.0804 24.3978 43.6369C24.0532 42.5792 24.1221 41.1463 24.5701 40.2592C25.2592 38.8263 26.3964 38.2804 27.5336 38.5192C27.6369 38.5533 27.7059 38.6557 27.6025 38.6898C26.7065 39.0651 24.8802 40.498 26.0863 43.1934C27.189 42.8181 27.2579 42.7498 28.6707 42.4428C28.7741 41.3851 28.8085 40.1227 29.2221 39.3721C30.0835 37.8368 32.1166 37.1204 33.047 37.4957C33.1504 37.5298 33.2193 37.6662 33.1159 37.7004C32.5991 38.0415 31.9099 38.3145 31.2207 39.338C30.8416 39.8839 30.1869 41.1463 30.3592 41.9992C31.3585 41.8628 32.668 41.7945 33.8051 41.8286C34.0463 41.1804 34.5288 40.3957 34.8389 40.0204C35.0457 39.7816 35.3213 39.5768 35.597 39.4745V43.2957C33.7018 43.1934 31.5997 43.3981 29.6011 43.8757C25.087 44.9334 23.9153 45.7522 19.8836 47.9017C22.2958 49.4028 19.9525 51.6888 18.4708 49.437C15.8519 52.4052 14.1634 48.584 16.8857 48.004C14.8181 45.5134 18.1951 44.1828 18.712 46.844Z" fill="#7F7F7F"/>
<path d="M17.5404 36.6768C18.2296 36.2674 19.16 35.9604 19.8491 35.6192C19.7802 34.5615 19.6424 33.6062 19.9525 32.7191C20.5039 31.1156 21.3653 30.2968 22.7437 30.4332C22.8471 30.4673 22.916 30.5697 22.8471 30.6379C21.8478 31.1497 22.089 31.8321 21.641 32.8897C21.5032 33.1968 21.1586 34.4933 21.8822 34.698C21.9511 34.7321 22.0201 34.7321 22.1234 34.7321C23.4329 34.2203 22.9505 34.2544 24.2944 33.9133C24.3288 32.8897 24.3978 31.4909 24.7423 30.7403C25.466 29.2732 26.8099 28.5567 28.0504 28.8638C28.1538 28.8979 28.3606 29.1367 28.2572 29.1709C27.2579 29.4779 25.5349 31.4909 26.2586 33.0603C27.12 32.9238 27.7058 32.6509 29.2565 32.4462C29.4633 31.3885 29.8079 30.3309 30.3247 29.6144C31.393 28.1473 33.047 27.8403 34.0119 28.2838C34.1153 28.3179 34.2531 28.5909 34.1497 28.625C32.8747 28.8979 32.8403 28.7614 32.0132 29.7509C31.5653 30.2626 30.6693 31.6615 31.3241 32.3097C32.4268 32.2415 33.1849 32.105 34.3909 32.2074C34.7011 31.5932 34.9423 30.7403 35.2869 30.3991C36.4929 29.1709 38.595 29.0685 39.2841 29.8873C39.3531 29.9556 39.3875 30.092 39.2841 30.092C38.147 30.1262 37.7335 30.4332 36.8375 31.2179C36.7342 31.2862 36.5274 31.5591 36.2862 31.9003H35.6315V34.0156C33.7707 33.845 31.7376 33.9133 29.8423 34.1862C24.8457 34.9368 23.0194 36.0627 18.8843 38.0416C20.6417 40.0886 17.7816 41.5216 16.9201 39.3722C14.7147 41.8969 12.7505 38.1098 15.7829 37.7345C14.0944 35.0392 17.0579 34.3227 17.5404 36.6768Z" fill="#7F7F7F"/>
<path d="M65.1286 32.5827V52.4053C65.1286 60.2183 58.6847 66.5643 50.7246 66.5643C42.799 66.5643 36.3207 60.2183 36.3207 52.4053V32.5827H65.1286ZM65.8178 31.8662H35.597V52.3712C35.597 60.5254 42.3855 67.2466 50.6902 67.2466C59.0293 67.2466 65.7833 60.5254 65.7833 52.3712L65.8178 31.8662Z" fill="#7F7F7F"/>
<path d="M50.0699 46.4005C50.2077 46.537 50.5179 46.3664 50.6212 46.2299C50.8624 45.8546 50.828 45.377 50.8624 44.8993C50.8969 44.3876 50.8969 43.944 50.7246 43.4664C50.4489 42.6476 50.0699 41.9993 49.1395 41.8628C49.0361 41.8287 48.8294 42.0334 48.8983 42.1017C49.5185 42.7499 49.7598 42.7158 49.932 43.7052C50.1043 44.6605 50.001 46.3323 50.0699 46.4005ZM43.5571 58.3077C43.6949 58.3419 44.0051 57.9324 44.1084 57.6936C44.2118 57.4889 44.1774 57.0795 44.1774 57.0454C44.1429 56.9771 43.7983 57.1136 43.626 57.1136C43.4537 57.1136 43.3159 57.0795 43.0747 57.0454C42.8334 57.0112 42.8679 56.4654 42.8334 56.1583C42.7645 55.3736 42.7301 54.5889 42.7645 53.8042C42.7645 53.5994 42.8334 53.3265 43.0057 53.19C43.247 53.0536 43.5916 53.0877 43.8672 53.1218C44.4186 53.2241 44.9355 53.4971 45.5213 53.5994C45.8314 53.6677 46.176 53.6336 46.4861 53.5312C46.7618 53.463 46.9686 53.2583 47.2098 53.1559C47.3476 53.1218 47.5199 53.0877 47.6233 53.1559C48.0713 53.3947 48.3814 53.8383 48.8294 54.0089C49.4152 54.1795 50.0354 54.1112 50.6557 54.1453C51.1381 54.1453 51.6206 54.0771 52.103 54.1453C52.3097 54.1795 52.6543 54.2136 52.7232 54.4524C52.7922 54.7595 52.2753 55.0324 52.3442 55.3395C52.482 55.8171 53.0334 56.0559 53.2746 56.4654C53.378 56.636 53.3435 56.8407 53.2746 57.0113C53.2057 57.1477 52.9645 57.1818 52.8611 57.3183C52.7232 57.523 52.6888 57.7618 52.551 57.9666C52.4131 58.1713 52.2064 58.3419 51.9996 58.5124C51.5516 58.8536 51.1037 59.1948 50.5868 59.4678C50.4145 59.5701 50.1043 59.3654 50.0354 59.536C49.8976 59.8431 49.7598 60.2183 49.6219 60.4231C49.4841 60.6278 49.3118 60.6619 49.2084 60.7642C49.105 60.9007 48.9672 61.1395 49.0361 61.1737C49.105 61.2078 49.7598 61.2078 50.001 61.1737C50.2422 61.1395 50.38 61.1054 50.4489 61.0713C50.5179 61.0031 50.4145 60.7984 50.3456 60.3889C50.3111 59.9795 51.4483 59.8089 51.9996 59.5019C52.5854 59.1266 53.1712 58.7172 53.757 58.376C53.9982 58.2395 54.3428 58.2054 54.5496 58.0007C54.653 57.8983 54.6185 57.7277 54.6185 57.5913C54.6185 57.2501 54.5496 56.9089 54.5496 56.5677C54.5496 56.3971 54.5496 56.1924 54.6874 56.0901C54.7908 55.9877 54.9976 55.9536 55.1009 56.0218C55.3077 56.1242 55.3421 56.4312 55.5144 56.5677C55.7901 56.7724 56.1347 56.8407 56.4448 56.9771C56.7205 57.1136 57.2029 57.1136 57.2374 57.3865C57.3063 57.8983 56.9617 58.376 56.755 58.8195C56.6516 59.0583 56.4104 59.1948 56.2725 59.4336C56.2036 59.5701 56.2036 59.7407 56.1002 59.843C55.8246 60.116 55.4455 60.2866 55.1699 60.5595C54.9631 60.7642 54.7908 60.9689 54.6874 61.2078C54.6185 61.3442 54.584 61.4807 54.5151 61.6172C54.4117 61.7537 54.2395 61.7878 54.1361 61.9925C54.0327 62.1972 53.7915 62.7431 53.9982 62.709C54.205 62.6748 55.4111 62.4701 55.4455 62.3337C55.48 62.2313 55.3766 61.9242 55.3077 61.549C55.2388 61.1737 56.1003 60.9007 56.5138 60.6619C56.755 60.5254 57.0996 60.5936 57.3063 60.4231C57.4442 60.3207 57.3752 60.0819 57.4097 59.9454C57.5131 59.7066 57.582 59.4336 57.7888 59.2289C58.03 58.956 58.4435 58.8536 58.6502 58.5807C58.857 58.2395 59.0982 57.8301 59.0293 57.4548C58.9604 57.1477 58.5813 57.0454 58.3746 56.8065C58.2023 56.636 58.03 56.4312 57.9611 56.1924C57.8577 55.8512 57.7888 55.5101 57.8921 55.1689C58.03 54.7595 58.4435 54.4865 58.6847 54.1453C58.8914 53.8383 59.2016 53.5994 59.305 53.2583C59.4083 52.8489 59.2016 52.4053 59.1671 51.9959C59.1671 51.9277 59.0982 51.8253 59.1671 51.7571C59.4428 51.5182 59.7529 51.2112 60.132 51.1429C60.4766 51.1088 60.7522 51.45 61.0968 51.5182C61.4414 51.5524 61.8549 51.5865 62.1995 51.45C62.3029 51.4159 62.3374 51.1771 62.2685 51.0747C62.0272 50.87 61.5104 50.9382 61.407 50.6653C61.3381 50.4265 61.8205 50.3582 61.9583 50.1194C62.1306 49.8123 62.2685 49.4712 62.2685 49.0959C62.2685 48.9594 61.9928 48.9594 61.8894 49.0276C61.7171 49.13 61.7171 49.3688 61.5793 49.5053C61.4759 49.6076 61.3036 49.6418 61.1658 49.6418C61.0279 49.6418 60.8212 49.5735 60.7522 49.4712C60.6489 49.3688 60.58 49.13 60.6833 49.0617C60.959 48.8912 61.3381 48.9594 61.6482 48.8912C61.786 48.857 61.9583 48.8229 62.0272 48.7206C62.1306 48.5159 62.1306 48.277 62.0272 48.0723C61.9928 47.97 61.8205 47.97 61.7171 48.0041C61.5793 48.0382 61.5104 48.2429 61.3381 48.2429C61.1313 48.2429 60.9245 48.1406 60.7867 48.0041C60.6833 47.8676 60.6489 47.6629 60.7178 47.5264C60.8212 47.2876 61.1658 47.2194 61.2691 46.9805C61.407 46.6735 61.5103 46.2982 61.4414 45.957C61.407 45.8205 61.1313 45.7523 61.0279 45.8546C60.8556 45.957 60.8901 46.1958 60.7867 46.3323C60.6489 46.537 60.58 46.8441 60.3732 46.9464C60.2354 47.0147 59.9941 46.8782 59.9597 46.7076C59.8908 46.4347 60.0631 46.1617 60.132 45.9229C60.2354 45.6499 60.3732 45.377 60.5455 45.1382C60.7178 44.8993 61.0624 44.797 61.2002 44.524C61.3036 44.3193 61.407 44.0464 61.2691 43.8758C61.1658 43.7393 60.9245 43.8417 60.7867 43.944C60.6833 44.0123 60.7178 44.2511 60.6144 44.3193C60.3043 44.4558 59.9252 44.3535 59.6496 44.4899C59.4083 44.6264 59.305 44.8652 59.1671 45.1041C58.9259 45.5135 58.8914 46.2299 58.7881 46.2982C58.6847 46.4005 58.4435 46.3664 58.3746 46.2299C58.2712 46.0594 58.4435 45.7864 58.3056 45.6158C58.2023 45.5135 57.9266 45.5135 57.8232 45.6158C57.6854 45.7523 57.6509 45.957 57.6509 46.1617C57.6509 46.4688 57.6854 46.7758 57.8232 47.0488C58.0644 47.4923 58.4435 47.8335 58.7536 48.2429C59.0637 48.6523 59.4428 49.0276 59.6151 49.5053C59.7185 49.8123 59.7529 50.1876 59.6151 50.4606C59.5117 50.7335 59.236 51.0065 58.9604 51.0065C58.5813 50.9724 58.3056 50.5629 57.9955 50.3582C57.6854 50.1535 57.3752 49.8806 57.0307 49.8123C56.2381 49.6759 55.4111 49.8123 54.584 49.8123C53.8604 49.8123 53.1023 49.9147 52.3787 49.8123C52.0341 49.7782 51.655 49.6418 51.4138 49.4029C51.1726 49.1641 51.0003 48.8229 51.0003 48.5159C50.9658 48.0723 51.1381 47.6629 51.3104 47.2535C51.4483 46.9805 51.655 46.7076 51.9307 46.537C52.1374 46.4005 52.482 46.3323 52.6888 46.4005C52.93 46.5029 53.5847 47.39 53.7226 47.3558C53.8604 47.3217 53.757 46.537 53.6881 46.2982C53.5503 45.9229 53.1368 45.7182 53.0334 45.3429C52.9989 45.2405 53.1712 45.1041 53.2746 45.1041C53.4813 45.1041 53.7226 45.2405 53.8949 45.4111C53.9982 45.4794 54.4462 46.1276 54.5496 46.0935C54.653 46.0594 54.4807 45.1723 54.3773 44.8993C54.205 44.524 53.6536 44.2511 53.6192 44.1487C53.5847 44.0805 53.6192 44.0123 53.7226 43.9782C53.9293 43.9782 54.1361 44.0805 54.3428 44.1487C54.5151 44.217 54.7908 44.4217 54.8942 44.3876C54.9976 44.3535 54.8942 44.0464 54.7908 43.9099C54.4118 43.4664 53.8949 43.1934 53.5158 42.784C53.3091 42.5793 53.1023 42.3064 53.1023 41.9993C53.1023 41.8287 53.3091 41.6581 53.4814 41.5899C53.7915 41.4534 54.205 41.3852 54.4807 41.2146C54.584 41.1464 54.5151 41.0781 54.4117 41.044C53.9638 40.8734 53.4813 40.8052 52.9989 40.8052C52.7232 40.8052 52.482 40.9758 52.2064 41.044C52.0341 41.1122 51.8618 41.2146 51.655 41.2146C51.3104 41.2146 50.9314 41.2487 50.6902 41.044C50.5523 40.9075 50.7246 40.6346 50.828 40.4299C50.9314 40.2593 51.1037 40.1569 51.2415 40.0205C51.3449 39.9181 51.655 39.8158 51.5516 39.7816C51.4483 39.7475 50.8969 39.7475 50.5868 39.8499C50.3111 39.9181 50.0699 40.0205 49.8631 40.2252C49.6908 40.3958 49.7253 40.7711 49.4841 40.8734C49.0706 41.1122 48.8638 41.044 48.4158 41.2487C48.3125 41.3169 48.0713 41.5899 47.9679 41.624C47.4165 41.6922 46.3138 41.4193 46.2794 41.5217C46.2105 41.624 47.1409 42.1358 47.3131 42.6134C47.3821 42.8181 46.8652 42.5111 46.6584 42.5452C46.3138 42.5793 45.9692 42.6476 45.6936 42.784C45.4179 42.9205 45.1767 43.1593 44.9699 43.3981C44.7632 43.6029 44.6598 43.8758 44.4186 44.0464C44.3152 44.1146 44.074 44.0123 44.0051 44.1146C43.9017 44.2511 43.8672 44.5582 44.0395 44.5582L45.0044 44.6264C45.1767 44.6264 44.8321 45.0017 44.9355 45.1723C45.0044 45.2746 45.2456 45.2405 45.349 45.1723C45.4868 45.104 45.5557 44.8993 45.728 44.797C45.9003 44.6946 46.0726 44.5582 46.2794 44.5582C46.5206 44.5582 46.8307 44.6605 46.9341 44.8652C47.0375 45.0699 46.7963 45.3088 46.7618 45.5135C46.7273 45.7523 46.8652 46.0594 46.6929 46.2299C46.176 46.7076 46.0037 46.2982 45.2456 47.2535C44.6253 48.0041 44.901 47.5947 44.6942 48.5841C44.6598 48.7888 44.6253 48.9935 44.453 49.13C44.2807 49.2323 44.0051 49.3006 43.8328 49.1982C43.4882 49.0276 43.2814 48.6864 43.0402 48.3453C42.9024 48.1747 42.9713 47.8676 42.799 47.7311C42.5578 47.5947 42.2132 47.5947 41.9375 47.6629C41.7308 47.7311 41.6274 47.97 41.524 48.1406C41.2483 48.5159 41.0416 48.9594 40.8004 49.3347C40.5936 49.6418 40.3179 49.9147 40.1456 50.2218C40.0423 50.3923 40.1112 50.5971 40.0078 50.7676C39.801 51.2453 39.6287 51.6888 39.3875 52.1324C39.2841 52.303 39.0774 52.4053 39.0085 52.61C38.974 52.8147 39.0429 53.2583 39.1463 53.2583C39.2497 53.2583 39.5943 53.0194 39.801 52.883C40.0423 52.7806 40.4902 52.6441 40.5247 52.5759C40.5591 52.5077 40.2835 52.2688 40.1456 52.0983C39.9044 51.7912 40.4213 51.3477 40.6281 51.0065C40.697 50.87 40.8693 50.8359 40.9382 50.6994C41.076 50.4265 41.1105 50.0853 41.2483 49.8123C41.4206 49.437 41.6274 49.0617 41.903 48.7888C42.0409 48.6523 42.2821 48.55 42.4544 48.6864C42.7301 48.857 42.7645 49.2323 42.9368 49.5394C43.0747 49.7441 43.247 49.9488 43.3159 50.1876C43.3848 50.3924 43.178 50.6653 43.3159 50.8359C43.4882 51.0406 43.8328 51.1088 44.1084 51.1429L44.7287 51.2112L44.7976 52.0641C44.8321 52.3712 44.1429 52.1324 43.8328 52.2006C43.5571 52.2688 43.2814 52.3712 42.9713 52.4394C42.6956 52.5077 42.1787 52.2688 42.1098 52.5759C41.8686 53.77 42.1787 54.9642 42.2476 56.1583C42.2476 56.4654 42.0753 56.9771 42.3855 57.1136L42.9713 57.3524C43.0747 57.5913 43.1436 57.8983 43.2814 58.0689C43.247 58.2395 43.4193 58.2736 43.5571 58.3077Z" fill="#7F7F7F"/>
<path d="M62.5441 35.5509C62.5441 35.3121 62.3718 35.2097 62.0617 35.2097H60.8901C60.5799 35.2097 60.4076 35.3121 60.4076 35.5509C60.4076 35.7897 60.5799 35.8921 60.8901 35.8921H61.1313V38.0415C61.1313 38.4168 61.2347 38.5874 61.4759 38.5874C61.7171 38.5874 61.8205 38.4168 61.8205 38.0415V35.8921H62.0617C62.4063 35.8921 62.5441 35.7897 62.5441 35.5509ZM59.2016 36.3015C59.2016 36.5744 59.0637 36.7109 58.7881 36.7109H58.4779V35.8921H58.7881C59.0637 35.8921 59.2016 36.0285 59.2016 36.3015ZM59.9597 38.2462C59.9597 38.1097 59.8908 37.9733 59.7529 37.8027L59.2016 37.1203C59.6495 37.018 59.9252 36.6768 59.9252 36.1991C59.9252 35.585 59.5117 35.1415 58.7881 35.1415H58.2712C57.8921 35.1415 57.7887 35.3121 57.7887 35.6874V38.0074C57.7887 38.3827 57.8921 38.5533 58.1333 38.5533C58.3746 38.5533 58.4779 38.3827 58.4779 38.0074V37.1886L59.2705 38.3145C59.4083 38.485 59.5117 38.5874 59.6495 38.5874C59.8218 38.5874 59.9597 38.4509 59.9597 38.2462ZM56.307 37.1886H55.5834L55.9624 35.9603L56.307 37.1886ZM57.2719 38.2121C57.2719 38.1439 57.2719 38.0756 57.2374 37.9733L56.4793 35.585C56.3759 35.3121 56.2036 35.1415 55.9624 35.1415C55.7212 35.1415 55.5489 35.3121 55.4455 35.6191L54.653 37.9733C54.6185 38.0415 54.6185 38.1097 54.6185 38.178C54.6185 38.3827 54.7563 38.5533 54.9286 38.5533C55.0665 38.5533 55.2043 38.4509 55.2732 38.2121L55.3766 37.8709H56.4793L56.5482 38.178C56.6171 38.4168 56.7205 38.5533 56.8928 38.5533C57.134 38.5874 57.2719 38.4509 57.2719 38.2121ZM54.1361 37.018C54.1361 36.6427 53.9982 36.5062 53.7226 36.5062H53.2746C52.9989 36.5062 52.8611 36.6086 52.8611 36.8474C52.8611 37.0862 52.9989 37.1886 53.2746 37.1886H53.4813C53.4813 37.598 53.2746 37.8709 52.93 37.8709C52.5509 37.8709 52.2753 37.4615 52.2753 36.8133C52.2753 36.165 52.5509 35.7897 52.93 35.7897C53.309 35.7897 53.4813 36.0968 53.6536 36.0968C53.7915 36.0968 53.9293 35.9262 53.9293 35.7556C53.9293 35.4144 53.5503 35.0732 52.9645 35.0732C52.1374 35.0732 51.6205 35.7556 51.6205 36.8474C51.6205 37.905 52.1374 38.6215 52.8955 38.6215C53.6536 38.6215 54.1361 37.9392 54.1361 37.018ZM51.4482 35.5509C51.4482 35.3121 51.276 35.2097 50.9658 35.2097H49.7942C49.4841 35.2097 49.3118 35.3121 49.3118 35.5509C49.3118 35.7897 49.4841 35.8921 49.7942 35.8921H50.0354V38.0415C50.0354 38.4168 50.1388 38.5874 50.38 38.5874C50.6212 38.5874 50.7246 38.4168 50.7246 38.0415V35.8921H50.9658C51.276 35.8921 51.4482 35.7897 51.4482 35.5509ZM49.1739 35.5509C49.1739 35.3121 49.0016 35.2097 48.6915 35.2097H47.5199C47.2098 35.2097 47.0375 35.3121 47.0375 35.5509C47.0375 35.7897 47.2098 35.8921 47.5199 35.8921H47.7611V38.0415C47.7611 38.4168 47.8645 38.5874 48.1057 38.5874C48.3469 38.5874 48.4503 38.4168 48.4503 38.0415V35.8921H48.6915C49.0016 35.8921 49.1739 35.7897 49.1739 35.5509ZM46.624 37.0862V35.6874C46.624 35.3121 46.5206 35.1415 46.2794 35.1415C46.0381 35.1415 45.9348 35.3121 45.9348 35.6874V37.018C45.9348 37.598 45.728 37.905 45.349 37.905C44.9699 37.905 44.7632 37.598 44.7632 37.018V35.6874C44.7632 35.3121 44.6598 35.1415 44.4186 35.1415C44.1773 35.1415 44.074 35.3121 44.074 35.6874V37.0862C44.074 38.0756 44.5564 38.6215 45.349 38.6215C46.1071 38.6215 46.624 38.0756 46.624 37.0862ZM43.7983 35.5509C43.7983 35.3121 43.626 35.2097 43.3159 35.2097H42.1443C41.8341 35.2097 41.6618 35.3121 41.6618 35.5509C41.6618 35.7897 41.8341 35.8921 42.1443 35.8921H42.3855V38.0415C42.3855 38.4168 42.4888 38.5874 42.7301 38.5874C42.9713 38.5874 43.0747 38.4168 43.0747 38.0415V35.8921H43.3159C43.626 35.8921 43.7983 35.7897 43.7983 35.5509ZM41.4206 37.4956C41.4206 36.9839 41.1449 36.6768 40.5936 36.4721C40.249 36.3356 40.0422 36.3015 40.0422 36.0627C40.0422 35.8921 40.1801 35.7897 40.3868 35.7897C40.5591 35.7897 40.7659 35.8921 40.9037 35.8921C41.1105 35.8921 41.2139 35.7556 41.2139 35.585C41.2139 35.3121 40.9037 35.1074 40.3868 35.1074C39.7321 35.1074 39.3186 35.5509 39.3186 36.165C39.3186 36.6768 39.5943 36.9156 40.1456 37.1203C40.4558 37.2227 40.6625 37.325 40.6625 37.598C40.6625 37.8027 40.5247 37.9392 40.3179 37.9392C40.0078 37.9392 39.7666 37.7686 39.5943 37.7686C39.3875 37.7686 39.2497 37.905 39.2497 38.1097C39.2497 38.3827 39.6632 38.6556 40.2145 38.6556C40.9726 38.6215 41.4206 38.1439 41.4206 37.4956Z" fill="#7F7F7F"/>
</g>
<defs>
<clipPath id="clip0_143_5640">
<rect width="101" height="100" fill="white"/>
</clipPath>
</defs>
</svg>
