<svg width="102" height="100" viewBox="0 0 102 100" fill="none" xmlns="http://www.w3.org/2000/svg">
<path d="M74.0278 79.2724V83.3252H75.4495V80.6269H80.6237V83.3252H82.0443V79.2794L74.0278 79.2724ZM75.2911 77.9614H80.7576C81.5169 77.8234 82.0816 77.2108 82.2408 76.6182H73.8081C73.9657 77.211 74.5386 77.8234 75.2911 77.9614ZM69.7221 83.3278C70.4389 83.05 70.8245 82.5695 70.9722 82.0072H64.5958L64.5999 76.6216L63.1705 76.6252V83.3278H69.7221ZM52.5413 77.9433H57.5898C58.351 77.7411 58.9901 77.211 59.1459 76.6234H51.1261V80.5843H57.69V81.9743L52.5413 81.978C51.7344 82.1837 51.0502 82.679 50.7089 83.3332L51.1261 83.3262H59.1003V79.2674H52.5413V77.9433ZM40.078 77.956H45.5428C46.3031 77.8175 46.8681 77.2055 47.0265 76.6123H38.5942C38.7516 77.2055 39.325 77.8175 40.078 77.956ZM40.078 80.605H45.5428C46.3031 80.468 46.8681 79.8554 47.0265 79.2619H38.5942C38.7516 79.8556 39.325 80.468 40.078 80.605ZM40.078 83.3271H45.5428C46.3031 83.1889 46.8681 82.5765 47.0265 81.9837H38.5942C38.7516 82.5767 39.325 83.1889 40.078 83.3271ZM25.8611 76.6286C26.0254 77.2143 26.5801 77.8131 27.3412 77.9631H29.6416L29.7589 78.0054V83.3121H31.1953V78.0054L31.3258 77.9631H33.6282C34.3978 77.7818 34.9406 77.2143 35.1021 76.6286V76.6156H25.8611V76.6286Z" fill="#7F7F7F"/>
<path d="M54.0538 63.3694L61.2311 26.4663C68.0724 26.4663 70.2303 27.1522 70.5419 29.9515C70.5419 29.9515 75.1312 28.3872 77.4459 25.2099C68.4133 21.3835 59.3376 21.2109 59.3376 21.2109L54.0418 27.1078L54.0538 27.107L48.7579 21.21C48.7579 21.21 39.6821 21.3827 30.6507 25.2092C32.9634 28.3864 37.5545 29.9508 37.5545 29.9508C37.8679 27.1513 40.0232 26.4654 46.8186 26.461L54.0538 63.3694Z" fill="#7F7F7F"/>
<path d="M54.0509 19.5075C61.3525 19.4564 69.71 20.5401 78.2655 23.9491C79.409 22.0675 79.7029 21.2359 79.7029 21.2359C70.3505 17.8532 61.592 16.6955 54.0499 16.6665C46.5082 16.6955 37.7502 17.8534 28.3989 21.2359C28.3989 21.2359 28.8161 22.2603 29.8354 23.9491C38.3893 20.5401 46.7481 19.4564 54.0499 19.5075H54.0509Z" fill="#7F7F7F"/>
</svg>
