<svg width="101" height="100" viewBox="0 0 101 100" fill="none" xmlns="http://www.w3.org/2000/svg">
<g clip-path="url(#clip0_143_5658)">
<path d="M51.5 17.6499C23.6114 17.6499 1 32.1332 1 49.9916C1 67.8624 23.6114 82.3499 51.5 82.3499C79.3886 82.3499 102 67.8666 102 49.9916C102 32.1166 79.3886 17.6499 51.5 17.6499ZM51.5 68.4666C47.3506 68.4666 43.9671 60.3749 43.7567 50.1957C48.909 50.6424 54.091 50.6424 59.2433 50.1957C59.0329 60.3707 55.6494 68.4666 51.5 68.4666ZM44.2659 42.1166C45.3937 34.9207 48.2091 29.8124 51.5 29.8124C54.7909 29.8124 57.6021 34.9207 58.7341 42.1166C53.9208 42.5397 49.0792 42.5397 44.2659 42.1166ZM51.5 22.3249C46.0839 22.3249 41.4631 30.3582 39.7588 41.5707C29.4904 39.9874 22.3236 36.3707 22.3236 32.1707C22.3236 26.5041 35.3863 21.9166 51.5 21.9166C67.6179 21.9166 80.6764 26.5082 80.6764 32.1707C80.6764 36.3707 73.5096 39.9874 63.2413 41.5707C61.5369 30.3624 56.9161 22.3291 51.5 22.3291V22.3249ZM8.23833 48.7832C8.23833 43.3041 10.372 38.1582 14.0795 33.7416C14.0416 34.0499 14.0164 34.3666 14.0164 34.6832C14.0164 41.5874 24.4741 47.4749 39.0686 49.6416C39.056 50.1416 39.056 50.6499 39.056 51.1582C39.056 64.0332 42.7004 74.9291 47.7378 78.6291C25.6019 77.3082 8.23833 64.4499 8.23833 48.7832ZM55.2623 78.6291C60.2996 74.9291 63.944 64.0291 63.944 51.1582C63.944 50.6457 63.9356 50.1457 63.9314 49.6457C78.5175 47.4791 88.9836 41.5957 88.9836 34.6832C88.9836 34.3666 88.9584 34.0499 88.9205 33.7416C92.628 38.1707 94.7575 43.3041 94.7575 48.7832C94.7575 64.4499 77.3981 77.3082 55.2623 78.6291Z" fill="#7F7F7F"/>
</g>
<defs>
<clipPath id="clip0_143_5658">
<rect width="101" height="100" fill="white"/>
</clipPath>
</defs>
</svg>
