<svg width="100" height="100" viewBox="0 0 100 100" fill="none" xmlns="http://www.w3.org/2000/svg">
<rect width="100" height="100" rx="50" fill="white"/>
<path d="M69.0911 35.4923C69.3278 35.7284 69.5156 36.0089 69.6437 36.3177C69.7719 36.6265 69.8378 36.9575 69.8378 37.2918C69.8378 37.6261 69.7719 37.9572 69.6437 38.266C69.5156 38.5747 69.3278 38.8552 69.0911 39.0913L46.2161 61.9663C45.98 62.203 45.6995 62.3908 45.3908 62.5189C45.082 62.6471 44.7509 62.713 44.4166 62.713C44.0823 62.713 43.7513 62.6471 43.4425 62.5189C43.1337 62.3908 42.8532 62.203 42.6171 61.9663L32.4505 51.7997C31.9732 51.3224 31.7051 50.6751 31.7051 50.0001C31.7051 49.3252 31.9732 48.6779 32.4505 48.2006C32.9277 47.7234 33.575 47.4553 34.25 47.4553C34.9249 47.4553 35.5722 47.7234 36.0495 48.2006L44.4166 56.5729L65.4921 35.4923C65.7282 35.2556 66.0087 35.0678 66.3175 34.9397C66.6263 34.8116 66.9573 34.7456 67.2916 34.7456C67.6259 34.7456 67.957 34.8116 68.2658 34.9397C68.5745 35.0678 68.855 35.2556 69.0911 35.4923Z" fill="#B00000"/>
</svg>
